<svg width="161" height="167" fill="none" xmlns="http://www.w3.org/2000/svg"><g clip-path="url(#a)"><path d="M28.9541 120.389c1.1592-1.674 2.0157-3.538 2.5304-5.508.2582-2.169 1.7213-.517 1.8418 0a7.437 7.437 0 0 0 .9123 1.463l5.5428-4.148s3.3566-1.205 1.7213 3.855c0 0 3.3223-2.1 1.7214 2.634 0 0 2.9952-.689 1.7214 3.925l-5.6289 5.164-10.3625-7.385ZM109.41 112.832c0-.189-1.325-4.819 0-5.732 1.326-.912 3.632 2.858 3.632 2.858s5.732 6.076 8.349 7.178c0 0 .774.241.43 1.859-.344 1.618-3.288 13.151-3.288 13.151-4.727-.461-9.34-1.736-13.633-3.77-5.5425-3.064-6.5409-5.319-6.2138-6.265.327-.947 1.7218-.534 1.7218-.534s-3.0129-4.768.189-4.441c0 0-1.7214-4.166 1.48-2.823 0 0-2.599-4.286-.327-4.114l7.66 2.633ZM55.5318 36.2493s-1.2222-7.0059 3.7181-7.6945c4.9403-.6885 10.0699-3.5976 12.6864-12.5831 2.6164-8.98546 15.2339-3.8902 15.8881-1.1189.6541 2.7714-3.6149 12.17.4475 13.7709 4.0624 1.6008 5.5772 1.8763 5.9387 5.2673.3615 3.3911 0 2.8919 0 2.8919a2.75419 2.75419 0 0 1 3.4427 0 5.5425 5.5425 0 0 1 2.2116 2.936c.3821 1.2017.3421 2.4977-.1116 3.674a5.80083 5.80083 0 0 1-2.1847 3.1659 5.80117 5.80117 0 0 1-3.685 1.1031s-4.3551 9.2264-7.333 12.4109c-2.978 3.1846-.4992 9.9667-.4992 9.9667l-7.2297 6.0764a4.235 4.235 0 0 1-2.8353.5619 4.23392 4.23392 0 0 1-2.5353-1.3882l-.8952-5.7149-1.05-4.9403-2.1345-.809s-7.4362-.2926-11.5847-12.0495l-.9295-3.5976s-5.6977.1893-6.61-3.4427c-.9123-3.6321.809-6.524 3.0812-7.0404l1.9968.4648.2066-1.9107Z" fill="#fff"/><path d="M1.77375 56.9744s12.04945-6.6616 16.86925-5.801c1.3255.241 16.0431 5.801 16.0431 5.801.2955.1245.5504.329.7359.5906.1856.2615.2944.5697.3141.8898a97.38797 97.38797 0 0 1-1.05 15.8537s-.2238.5336-1.5492 1.3426c-1.3255.8091-14.4939 6.042-14.4939 6.042a8.81271 8.81271 0 0 1-3.4427-.8263c-1.291-.7574-12.04946-5.9731-12.18717-6.0247a3.44262 3.44262 0 0 1-1.25661-1.9107c0-.8263-.63689-15.1307-.63689-15.1307a1.11872 1.11872 0 0 1 .65412-.8263ZM44.0159 93.1745l2.3754 28.2645s.2238 2.582 3.8903 4.562c3.469 2.272 6.6936 4.896 9.6223 7.832 0 0 5.1642 4.906 7.1437 4.906 1.9796 0 27.2318-11.069 27.2318-11.069a8.0472 8.0472 0 0 0 .6714-1.876c.1549-.912 4.7164-23.651 3.9418-27.7653 0 0 .1034-1.0672-1.4458-1.7213-1.5493-.6541-20.4153-10.07-20.4153-10.07s-.4993-.8262-4.1141 0c-3.6149.8263-28.9015 6.9371-28.9015 6.9371ZM78.2019 17.3316s1.1017 1.4115 2.8575-.3443 3.3566-1.3771 4.0796-.5508c.723.8262 1.5148 1.7213 1.0501 5.1641-.4648 3.4427-2.7026 8.0215 1.9279 9.5363 4.6304 1.5148 5.887.5508 5.887.5508l-.9984-1.7214s4.2345 2.6854 6.0075 2.3755c1.7729-.3098 1.9449-.8607 1.9799-1.7213 0 0 2.496.7057 2.995-.155.499-.8606-2.1-2.6853-2.066-3.632.148-3.2535.097-6.513-.155-9.7601-.361-.7746-2.9087-8.29695-7.3326-9.05434-4.4239-.7574-8.0388-1.11889-11.9291.72296a20.31162 20.31162 0 0 0-5.7837-5.06078C72.5109 1.39688 67.5942.7823 62.9508 1.95989c-5.2674 1.72135-8.3142 4.92307-8.7617 7.40182-.4476 2.47879-2.2378 9.27809-8.3659 10.58639-6.128 1.3082-1.0844 3.5804 0 3.7697 1.4863.2773 2.9997.3813 4.51.3099 0 0-1.9968 3.4427 3.2534 3.873 0 0 .6885 3.0468 7.8149 2.5132 7.1265-.5336 9.5536-2.7714 10.5864-4.7509 1.0328-1.9796 2.2894-7.2986 2.8918-8.0732.6025-.7746 1.687-2.5132 3.3222-.2582Z" fill="#FF8600"/><path d="M36.3042 120.441c1.7214-1.722 3.2706-3.443 4.9575-5.009.1549-.155.6713 0 1.0156 0 0 .43 0 1.05-.241 1.291-1.2049 1.17-2.4787 2.255-3.7697 3.305a8.1804 8.1804 0 0 1-1.5321.826l-.4303-.413ZM39.0068 123.161c.2434-.537.5253-1.054.8435-1.55.9467-1.256 1.9279-2.496 2.9607-3.701.1894-.241.6369-.258.964-.396.086.396.3098.81.2238 1.154-.1258.458-.3622.877-.6886 1.222-1.0945 1.477-2.5873 2.611-4.3034 3.271Z" fill="#000"/><path d="M94.7271 46.7496c.1893-3.2534.3443-6.3002.5853-9.347 0-.2582.6024-.7402.7917-.6885a4.47508 4.47508 0 0 1 1.9796.9811 5.45647 5.45647 0 0 1 1.1997 2.8854 5.45703 5.45703 0 0 1-.58 3.0705 4.75094 4.75094 0 0 1-1.5434 2.1201 4.75096 4.75096 0 0 1-2.4329.9784Z" fill="#fff"/><path d="M104.883 153.646c-6.8853-.62-13.4265-1.205-19.9849-1.842a6.24519 6.24519 0 0 1-1.8246-.844c.6357-.268 1.3093-.437 1.9968-.499 4.6132.344 9.2092.844 13.7708 1.171 3.5979.258 7.2129.31 10.8099.551.692.149 1.355.41 1.963.774-.632.311-1.304.531-1.997.654-1.635.104-3.322.035-4.734.035ZM89.9245 156.641c-.5584.181-1.1361.297-1.7214.344-7.1264-.161-14.247-.338-21.362-.533-.6733-.082-1.3366-.232-1.9795-.448v-.568c.5296-.179 1.0785-.294 1.6353-.344 7.2297.149 14.4479.327 21.6546.533.5858.073 1.1627.206 1.7214.396l.0516.62ZM78.6151 47.593a.6537.6537 0 0 0-.4131.1033 7.09241 7.09241 0 0 1-3.4504 1.5263 7.09165 7.09165 0 0 1-3.7449-.4591h-.1894a.75925.75925 0 0 0-.2641.2162.75728.75728 0 0 0-.1341.6514.75859.75859 0 0 0 .1572.3029l1.3771.6025c.8043.1617 1.6244.231 2.4444.2066a8.60654 8.60654 0 0 0 4.6648-1.8419.84302.84302 0 0 0 .153-.371.84361.84361 0 0 0-.2524-.7376.8436.8436 0 0 0-.3481-.1996ZM78.8389 38.9174c-.8607 0-.9468 1.7213-.9468 1.7213-.0481.2593.0031.5272.1435.7504.1403.2233.3595.3855.6139.4546.6197.1205 1.2566-.5853 1.2738-1.3082.0172-.723-.2238-1.6009-1.0844-1.6181ZM67.1852 39.451c-.8607 0-.964 1.6353-.964 1.6353-.0441.2588.0088.5248.1485.7471.1398.2223.3565.3853.6089.4578.6369.1205 1.2738-.5852 1.2738-1.3082s-.241-1.5148-1.0672-1.532ZM75.4478 44.3741c0-.2066-.482-.4476-.7402-.4648-.2582-.0172-.9983 0-1.5664.1033-.6369 0-.7574-.3615-.7574-.3615v-5.164c0-.3099-.1549-.4132-.3098-.4304-.1549-.0172-.2926.4304-.2926.4304a14.66575 14.66575 0 0 0-.6025 6.4034c.08.1869.2053.3508.3646.4771.1593.1262.3475.2107.5477.2459a15.6516 15.6516 0 0 0 2.9263-.5509.87864.87864 0 0 0 .2996-.2915.87834.87834 0 0 0 .1307-.397ZM82.1956 35.5091a3.13293 3.13293 0 0 0-1.759-1.4653 3.13315 3.13315 0 0 0-2.2862.1226c-.2369.195-.4057.4602-.4819.7574 0 0 0 .3099.1549.4132a.70611.70611 0 0 0 .3959.1893h.2238c.2754 0 0-.3098.7402-.4475a2.28924 2.28924 0 0 1 1.4975.4303c.2471.2697.5834.4409.9468.482.7058.086.568-.482.568-.482ZM68.9066 35.5091a3.15023 3.15023 0 0 0-4.0624-1.3427 1.4293 1.4293 0 0 0-.4648.7574s0 .3099.1549.4132a.70599.70599 0 0 0 .3787.1893h.2238c.2926 0 .0861-.3098.7574-.4475a2.23698 2.23698 0 0 1 1.4803.4303c.2542.2696.5958.4404.964.482.723.086.5681-.482.5681-.482ZM107.827 121.078c-1.894-1.205-3.787-2.41-5.715-3.564l-.5-.275c-.378-.258-1.17-.757-1.428-.534-.2585.224-.2584 1.326.878 2.032 2.203 1.394 4.492 2.651 6.782 3.907.895.482 1.584.103 1.566-.258-.017-.362-1.583-1.308-1.583-1.308ZM109.341 117.153c-1.996-1.016-4.01-2.014-6.059-2.961l-.499-.223c-.413-.224-1.257-.637-1.48-.396-.224.241-.121 1.359 1.067 1.928 2.341 1.17 4.751 2.203 7.161 3.201.929.396 1.583 0 1.515-.413-.069-.413-1.705-1.136-1.705-1.136ZM108.05 125.054c-.396-.344-1.721-1.171-1.721-1.171-1.532-.877-3.081-1.721-4.682-2.53 0 0-1.48-.775-1.9279-.43-.4476.344-.0001 1.119.9979 1.824 1.894 1.016 3.856 1.894 5.819 2.772 1.17.533 1.962-.103 1.514-.465ZM81.0939 5.62637c0-.15492-.2582-.27541-.3959-.39591C76.3602 1.11642 71.0584.06639 65.3951.75493c-6.0075.6369-10.3281 3.44272-12.2216 9.63957a32.16134 32.16134 0 0 1-1.7214 3.9419 8.88122 8.88122 0 0 1-2.4673 3.0789 8.88138 8.88138 0 0 1-3.5574 1.7065s-2.978.6197-2.8402 1.1189c.1377.4992 1.1533.6369 3.4427.4992h.3787a8.15965 8.15965 0 0 0 3.4923-1.3311 8.15973 8.15973 0 0 0 2.5324-2.7485 50.79444 50.79444 0 0 0 2.7025-6.66169 9.96679 9.96679 0 0 1 5.1641-6.17967c4.0727-1.8663 8.6959-2.14259 12.9618-.7746a19.95053 19.95053 0 0 1 6.9887 3.70091c.8263.77461 1.5493 1.11889 1.6353.36149a2.16842 2.16842 0 0 0-.2469-.81991 2.16849 2.16849 0 0 0-.5449-.66046ZM101.733 30.4139c-.121-.2754-1.136-.482-1.136-.482a6.69463 6.69463 0 0 1-2.7543-2.0656 7.6942 7.6942 0 0 1-1.8935-4.3378s-.2754-1.2911-.7918-1.3255c-.5165-.0344-.5853 1.1361-.5164 1.8247a7.03948 7.03948 0 0 0 .5396 2.7132 7.0412 7.0412 0 0 0 1.5431 2.2959c1.0067 1.0948 2.3772 1.7861 3.8563 1.9451 1.17.0689 1.273-.2926 1.153-.568Z" fill="#000"/><path d="M100.339 11.8577c-1.641-2.3164-3.9786-4.04822-6.6724-4.94307a13.32347 13.32347 0 0 0-8.3037-.03168s-2.582.87789-2.5992 1.30823c-.0173.43034.4303.86068 1.5664.48198a23.8759 23.8759 0 0 1 4.4928-.67133 12.2728 12.2728 0 0 1 5.3426 1.11704 12.27267 12.27267 0 0 1 4.33 3.32313c1.1756 1.4186 2.0165 3.0838 2.4615 4.8719.444 1.7881.48 3.6533.105 5.4572-.199 1.3796-.233 2.7779-.104 4.1656 0 .9812.241 1.8247.603 1.928.361.1033.465-.4476.465-.4476.118-.4301.21-.867.275-1.3082.189-1.3427.258-2.6853.534-4.0108.383-1.9443.359-3.9471-.07-5.8817a14.34907 14.34907 0 0 0-2.426-5.3587ZM96.6894 31.2057c-.4476-.2066-2.3583-1.3599-2.3583-1.3599l-.8607-.7057a6.5422 6.5422 0 0 1-2.0994-2.7017 6.5417 6.5417 0 0 1-.4483-3.3919c0-.5853.1895-1.1533.1895-1.7214a4.20069 4.20069 0 0 0-.2583-1.0156c-.327.2066-.7745.3615-.9295.6541-.837 1.5397-1.0556 3.3405-.611 5.0356.4446 1.6952 1.5187 3.157 3.0036 4.0876l.5509.2927a20.55232 20.55232 0 0 0 3.2189 1.6008c.9296.2582 1.0501-.568.6026-.7746Z" fill="#000"/><path d="M150.344 103.692c-7.109-8.383-16.232-14.4594-25.39-20.4153-7.408-4.8235-15.546-8.4214-24.099-10.6552-1.7214-.4647-3.4427-.6369-5.1641-1.0844-.6369-.1549-1.5664-.6197-1.7213-1.0845a2.01463 2.01463 0 0 0-.658-1.2161c-.356-.315-.812-.494-1.2872-.5052-1.7213-.241-3.4427-.4132-5.6804-.6541v-5.7149a2.47817 2.47817 0 0 1 .6713-1.3771 28.54048 28.54048 0 0 0 6.5412-11.447c.0974-.213.2404-.402.4188-.5537.1785-.1517.388-.2624.6139-.3242 1.8278-.1666 3.5204-1.0336 4.7236-2.4196 1.2032-1.386 1.8232-3.1836 1.7312-5.0167.113-.8042.043-1.6237-.207-2.3966-.249-.7729-.67-1.4793-1.2321-2.0659a5.37082 5.37082 0 0 0-2.0105-1.3206 5.37107 5.37107 0 0 0-2.3854-.3105 21.6032 21.6032 0 0 0-.482-2.8574s-.5337-1.3943-1.291-1.2911c-.7574.1033 0 1.4632 0 2.5821 0 2.2549.1549 4.5099 0 6.7649-.1438 6.4686-2.4462 12.7033-6.5412 17.7128a9.58735 9.58735 0 0 0-2.2428 3.8584 9.5886 9.5886 0 0 0-.2532 4.4557c.1768.9029.2861 1.8178.3271 2.737.0404.4787-.1078.9544-.4131 1.3254-1.8763 1.7214-3.7526 3.305-5.7666 4.8198-.6369.482-1.8763.9295-2.3927.6369a4.23448 4.23448 0 0 1-1.7213-2.4443c-.6369-2.496-.9984-5.1641-1.4976-7.6256a3.33894 3.33894 0 0 0-.9477-1.8292 3.33894 3.33894 0 0 0-1.8409-.925 21.48074 21.48074 0 0 1-4.5788-1.7214 12.94502 12.94502 0 0 1-4.1195-3.698 12.94562 12.94562 0 0 1-2.1979-5.0809 71.63376 71.63376 0 0 1-2.6681-16.6455 2.35828 2.35828 0 0 0-.1033-.9984s-.1032-2.7025-.6369-2.6164c-.5336.086-.9811 2.0656-1.1361 3.4427 0 .4647-.1032.9467-.1721 1.4115a4.90571 4.90571 0 0 0-2.1056.2258 4.90505 4.90505 0 0 0-1.8142 1.0921 4.90611 4.90611 0 0 0-1.1849 1.7552 4.90497 4.90497 0 0 0-.3348 2.091c-.2066 3.8558 2.3583 6.2829 7.1609 6.7305.4131 1.3598.7746 2.7713 1.2566 4.1312a17.97048 17.97048 0 0 0 5.4395 8.6068 19.9502 19.9502 0 0 0 6.8854 3.0812c.4131.1205 1.0328.3787 1.1016.6886.4992 2.1861.8951 4.4066 1.2394 6.1796-2.1345 1.5665-3.9935 2.9608-5.887 4.3206a3.44313 3.44313 0 0 1-1.2222.6197 31.67062 31.67062 0 0 0-4.4583 1.0328 52.81047 52.81047 0 0 0-16.2496 10.879c-5.0608 4.8026-9.7773 9.9667-14.4078 15.1995-5.4085 6.221-9.9113 13.176-13.3749 20.656-2.0931 4.218-2.8555 8.973-2.1861 13.633a10.65335 10.65335 0 0 0 2.5876 6.042c1.4776 1.691 3.4517 2.872 5.6405 3.374 11.9117 3.305 20.2775-5.525 21.7923-14.941.2105-.699.1503-1.452-.1686-2.109a2.90774 2.90774 0 0 0-1.5527-1.437c-.6508-.377-1.2722-.803-1.8591-1.274.5719-.426 1.118-.886 1.6353-1.377.964-1.119 1.9107-2.255 2.7886-3.443.1549-.223-.1377-.757-.2065-1.136-.3414.11-.6659.266-.964.465-.7058.723-1.3255 1.532-2.014 2.272-2.3755 2.531-2.4099 2.565-5.1641.672-2.341-1.584-4.6132-3.254-6.8854-4.924 1.4304-1.655 2.1535-3.806 2.014-5.99l1.3943 2.358-1.1533 1.722c.2077.055.4242.068.637.038.2128-.029.4175-.101.6024-.21 1.9967-1.446 3.9763-2.892 5.9387-4.373.313-.227.5716-.521.7573-.86.1205-.259.1721-.792 0-.895-.1465-.095-.3124-.154-.4853-.175-.1729-.021-.3483-.003-.5131.054-.5086.275-.9825.611-1.4115.998-1.1705.964-2.3238 1.963-3.4427 2.944-.2046-.734-.4754-1.449-.809-2.134a1.25879 1.25879 0 0 0-.4624-.489c-.1956-.117-.4196-.18-.6479-.18-.2283 0-.4523.063-.6479.18-.1956.118-.3554.287-.4623.489-.4542.888-.8566 1.802-1.205 2.736-.3271.861-.6025 1.722-.9467 2.737-.4256-.363-.8805-.692-1.3599-.981-.3099-.155-.8607-.327-1.0328-.172-1.5837 1.412-3.1501 2.875-4.6477 4.39-.3099.309-.3271.877-.482 1.342l.3271.224 1.5836-1.171c1.0156-.774 2.014-1.721 3.0984-2.323.2091-.095.4387-.135.6675-.117.2287.018.4492.094.6408.22 4.2085 3.615 8.7902 6.772 13.6676 9.416l1.3254.792c-.6496 4.153-2.512 8.021-5.3534 11.12-4.3895 5.336-15.4922 5.783-20.2776 0-.5551-.596-.9465-1.326-1.1361-2.118-.9338-5.214-.1485-10.591 2.2378-15.32 2.4573-4.835 5.3375-9.443 8.6067-13.771 4.6704-6.011 9.7307-11.7098 15.148-17.0583.1847-.1218.3807-.2256.5853-.3098.2065 1.3943.4303 2.6681.568 3.9591.7746 7.522 1.6181 15.045 2.2722 22.584.2238 2.599.723 4.803 3.4427 5.887.1805.096.3374.23.4595.394.1221.164.2062.353.2463.553.2754 3.89.2065 7.815.7745 11.654.8607 5.938 2.1346 11.825 3.219 17.747 0 .275 0 .757-.1377.86-1.3255.878-1.4632 1.842-.3099 2.875-1.5147 2.152-1.3598 2.737 1.0156 3.649.8507.349 1.741.592 2.6509.723 6.3691.637 12.7381 1.395 19.1243 1.722 10.8617.637 21.7407 1.377 32.6201 0 5.353-.672 10.706-1.274 16.06-1.98 1.566-.206 1.911-.929 1.515-2.444-.129-.532-.129-1.087 0-1.618.464-1.567.241-2.083-1.223-2.927-.444-.281-.759-.726-.877-1.239-.672-4.923-1.257-9.846-1.877-14.769 0-.517-.137-1.016-.223-1.722 1.153.5 2.082.878 2.977 1.309 6.899 3.517 14.691 4.896 22.378 3.959 6.679-.895 12.583-8.073 12.979-14.012.706-10.638-3.649-19.228-10.087-26.836ZM95.2606 37.4026c0-.2582.6025-.7402.7918-.6885.7315.1564 1.412.4938 1.9795.9811a5.45673 5.45673 0 0 1 1.1999 2.8854 5.45625 5.45625 0 0 1-.5801 3.0705 4.75094 4.75094 0 0 1-1.5434 2.1201 4.75095 4.75095 0 0 1-2.433.9784c.241-3.2534.396-6.2141.637-9.347h-.0517Zm-44.4282 4.8542a7.62573 7.62573 0 0 1 1.4287-3.0468c.2515-.2.5431-.3434.8549-.4207.3119-.0772.6368-.0864.9526-.0268.327 0 .6541.8262.7401 1.3082.3959 2.3583.723 4.7337 1.0845 7.1781a4.26928 4.26928 0 0 1-3.8678-1.1402 4.26935 4.26935 0 0 1-1.193-3.8518Zm36.6648 28.0581c1.0501-.6885 2.9092-.1205 4.7855-.1205l-3.5288 10.3282-8.9855-3.9075a78.39275 78.39275 0 0 1 7.7288-6.3002Zm-6.5411 8.383 6.524 2.7714c1.7213.7058 2.4787.5336 3.2533-1.1705.9295-2.0484 1.6181-4.2001 2.3927-6.3174.1721-.4475.2754-.9123.5852-1.9107.8779 1.0328 1.928 1.7214 2.0829 2.5304a19.159 19.159 0 0 1 .4303 6.3862 66.96686 66.96686 0 0 1-2.7197 9.5536c-.6886 2.0312-1.1705 2.0656-3.0812 1.136-3.1845-1.5836-6.4035-3.0984-9.588-4.682-.3959-.1894-.964-.5164-1.0328-.8607-.5508-2.7198-.9811-5.4739-1.5148-8.5207l2.6681 1.0844Zm-4.1657 0c.4992 2.4788.9296 4.6821 1.3255 6.6617a40.26638 40.26638 0 0 0-4.9748-.0861 51.26485 51.26485 0 0 0-5.164 1.0845c-.3099-1.446-.5852-2.8747-.8779-4.2862l.4131-.1549c.4846.3781.95.7802 1.3943 1.2049.1811.2422.4162.4389.6867.5744.2704.1354.5687.206.8712.206.3024 0 .6007-.0706.8711-.206.2705-.1355.5056-.3322.6867-.5744l3.4427-3.1501 1.3254-1.2738Zm-9.3986-1.4115c1.4804-1.0672 2.9263-2.1517 4.2001-3.0984l3.4428 3.4427-4.8887 4.6476-2.9607-3.5459c-.4304-.5337-.482-.9984.1377-1.446h.0688Zm6.8855 9.1748a3.25348 3.25348 0 0 1 2.014.2238c6.8854 3.2878 13.5814 6.6272 20.3636 9.9667.2237.1205.4304.3098.8091.5508-.426.2118-.8627.4014-1.3083.568-8.8994 2.5645-17.489 6.0075-26.0957 9.3475a2.4069 2.4069 0 0 1-1.2907.234c-.4437-.042-.8669-.207-1.2226-.475-6.5411-4.166-13.1167-8.263-19.675-12.3943-.4304-.2582-.8091-.6024-1.4632-1.0844 1.8418-.4303 3.4427-.7574 4.8886-1.1361 7.6429-1.9451 15.2857-3.9075 22.9629-5.801h.0173Zm24.0989 12.0495c-.1893 2.1003-.2753 4.0623-.5852 5.9903-1.1361 6.885-2.3582 13.943-3.4427 20.915-.028.451-.1883.884-.4607 1.245-.2724.362-.6449.635-1.0713.786l-24.099 9.794c-.3098.121-.6369.19-1.0673.327a9.56785 9.56785 0 0 1-.1377-1.033c.2066-8.796.4131-17.609.6713-26.422.0119-.228.0773-.449.191-.647.1137-.197.2723-.365.4632-.489 3.4427-1.223 6.8854-2.324 10.2248-3.546 6.128-2.187 12.2044-4.424 18.3152-6.6449.241-.0344.5165-.0688 1.0157-.2065l-.0173-.0689ZM46.047 90.0589a70.00505 70.00505 0 0 1 16.6111-11.1372c2.4271-1.1017 2.8058-.723 2.8402 1.9451 0 1.9624.4132 3.9075.6714 6.0936-7.0576 1.7214-14.2012 3.8387-21.5514 5.0608l-.2238-.4475c.5681-.4476 1.1189-.964 1.6698-1.446l-.0173-.0688Zm2.5821 33.5151c-.4041-.289-.7409-.661-.9875-1.092-.2466-.431-.3971-.91-.4412-1.404a4295.1613 4295.1613 0 0 0-2.4444-24.0993c-.0861-.8434-.1893-1.7213-.3271-3.0296 1.7214 1.0501 3.2879 1.8247 4.6994 2.737 5.7378 3.6719 11.424 7.3729 17.0586 11.1029.234.164.4302.377.5757.623.1454.247.2367.521.2678.806-.2238 8.951-.4993 17.902-.7747 26.87 0 .327 0 .654-.1032 1.257-1.7214-1.223-3.3051-2.29-4.8026-3.443-4.2346-3.426-8.4346-6.886-12.7036-10.259l-.0172-.069Zm109.4269 8.262c-.575 2.626-1.929 5.017-3.886 6.86-1.956 1.843-4.424 3.052-7.079 3.468-5.501.916-11.147.321-16.336-1.721l-8.985-3.512c-.315-.112-.62-.251-.913-.413-1.721-1.033-1.893-1.428-1.411-3.442 1.101-4.7 2.134-9.399 3.184-14.098.172-.741.293-1.481.448-2.359 6.747 2.376 13.271 4.596 19.726 6.989 2.531.93 2.135.396 2.135 3.305 0 .878.086 1.721.155 2.789 1.842-.654 1.239-2.273 1.928-3.305l2.22 2.599c.241-.379.448-.568.413-.689-.671-1.928-.895-4.131-3.287-4.992-4.855-1.721-9.674-3.442-14.511-5.284-2.496-.912-5.01-1.721-7.505-2.651-1.188-.43-2.256-.585-2.978.775-3.095-1.75-5.783-4.139-7.884-7.006-.617-.924-1.358-1.758-2.204-2.479-1.256-1.119-2.461-.809-3.012.792-.228.823-.31 1.679-.241 2.53.085.667.235 1.325.448 1.963-.964-.224-1.877-.534-2.789-.81h-.172c-1.016-.327-2.909-1.136-3.322-1.325-.263-.124-.559-.16-.844-.103-.413 0-.602.688 0 1.308 1.643 1.034 3.421 1.833 5.285 2.375 1.009.345 2.045.605 3.098.775.74.121 2.995.603 3.013.241-.004-.244-.089-.48-.241-.671-.586-.844-2.531-.362-2.29-2.135.155-1.256-.947-2.513-.138-4.165.63.64 1.206 1.331 1.722 2.065 1.946 3.184 4.734 5.769 8.056 7.471.199.076.381.191.535.338.153.148.276.325.359.521.084.196.127.407.127.621 0 .213-.043.424-.126.62-.964 3.735-1.842 7.488-2.754 11.223-.089.314-.204.619-.345.912-1.566-.292-3.012-.585-4.475-.791-4.151-.707-8.085-2.356-11.499-4.82 0 0-1.635-1.291-2.4786-.844-.8434.448.4476 1.722 1.2906 2.238 2.234 1.503 4.616 2.772 7.11 3.787 3.16.915 6.366 1.662 9.605 2.238-.689 2.152.568 3.649 2.444 4.889.353.361.561.838.585 1.342.723 5.302 1.36 10.604 2.152 15.888.207 1.412.224 3.099 1.722 3.564v3.442c-22.949 3.69-46.3457 3.609-69.2679-.241l.1894-.499v-3.202c.7058-.378.4475-1.222.2582-2.341-1.1705-6.971-2.1861-13.977-3.1845-20.983-.3443-2.341-.5164-4.682-.8091-7.316.4328.254.8523.53 1.2566.826l7.4707 6.369c1.8075 1.532 3.546 3.116 5.4567 4.493.362.208.763.338 1.1779.382.4148.045.8344.003 1.232-.124 5.1641-2.014 10.1733-4.131 15.234-6.231l8.6068-3.666c.9485-.35 1.8643-.782 2.7369-1.291.5385-.367.9243-.918 1.0845-1.55 1.3426-7.247 2.6853-14.493 3.8558-21.758.2847-2.392.3883-4.803.3099-7.212a2.1501 2.1501 0 0 0-.2657-.8367 2.1523 2.1523 0 0 0-.5778-.6609 16.08534 16.08534 0 0 0-2.3926-1.3255l-2.8919-1.5492c3.5792-5.8049 4.9821-12.6916 3.9591-19.4341.6025.1377 1.1533.2238 1.7214.3787 13.4246 3.6565 25.9256 10.1092 36.6816 18.9349 4.503 3.5439 8.733 7.4218 12.652 11.6018 5.233 5.489 8.6 12.488 9.623 20.002.264 2.326.212 4.677-.155 6.989l-.017-.069ZM60.0071 18.33c0-.0861-.5164 0-.7401.1549a3.4422 3.4422 0 0 0-.6542.5853A13.54726 13.54726 0 0 1 53.317 22.6a13.54794 13.54794 0 0 1-6.3233.7219s-2.6853-.723-2.737-.3787c-.0516.3443.5853 1.05 3.2534 1.5664 2.157.5058 4.4117.407 6.5162-.2854a12.04986 12.04986 0 0 0 5.4128-3.6392c.3576-.3854.6277-.8433.7918-1.3427a1.13612 1.13612 0 0 0-.2238-.9123ZM68.5451 19.1907c-.3959-.4304-1.0328.5852-1.0328.5852a79.50937 79.50937 0 0 1-6.3518 6.0248c-2.4443 1.859-5.5084 1.7213-8.5035 1.4115 0 0-1.0673-.0861-.8607.3615a9.00458 9.00458 0 0 0 3.7354.9123H56.9604a12.34284 12.34284 0 0 0 9.3642-4.837c.7574-.8607 2.582-4.0452 2.2205-4.4583Z" fill="#000"/><path d="M91.8696 31.5844c-.1893-.3787-2.0484-.6025-2.0484-.6025h-.3271a3.564 3.564 0 0 1-1.4147-.3374 3.56348 3.56348 0 0 1-1.162-.8746 3.56384 3.56384 0 0 1-.7157-1.2661 3.56162 3.56162 0 0 1-.1503-1.4466c.0871-1.3867.2944-2.7632.6197-4.114.1722-1.05.5508-2.0656.6369-3.0984a4.2343 4.2343 0 0 0-.1082-1.8315 4.23579 4.23579 0 0 0-.8727-1.6138 4.23399 4.23399 0 0 0-1.4734-1.0932 4.23431 4.23431 0 0 0-1.7974-.3674 3.32047 3.32047 0 0 0-1.1189.1894 2.6327 2.6327 0 0 0-1.0064.7992c-.2644.3454-.439.7509-.5084 1.1803a.65502.65502 0 0 0 .1761.3749.65432.65432 0 0 0 .7751.1292.65505.65505 0 0 0 .2882-.2975c.1461-.2121.338-.3887.5614-.5168a1.7205 1.7205 0 0 1 .7296-.2234c2.0656.1033 3.0296 1.6353 2.4615 4.1312-.241.9812-.6885 1.9107-.8434 2.9091a23.9388 23.9388 0 0 0-.4304 4.5616 4.3891 4.3891 0 0 0 .8962 2.2999 4.38954 4.38954 0 0 0 1.9957 1.4527c.2707.1172.5535.2038.8434.2582a11.8119 11.8119 0 0 0 2.6682.3615c1.3254.0516 1.4976-.6197 1.3254-.964ZM78.7528 17.4349a2.61717 2.61717 0 0 0-.723-1.6181 2.27185 2.27185 0 0 0-.9984-.4131 2.75376 2.75376 0 0 0-1.9501.4493 2.75358 2.75358 0 0 0-1.1311 1.6507c-.6025 1.6009-.9812 3.305-1.4976 4.9575a9.74285 9.74285 0 0 1-3.2004 4.8686 9.74358 9.74358 0 0 1-5.4064 2.1718s-3.546.241-3.7525.7918c-.2066.5508 2.0484.9295 4.2861.7746h.1378l.654-.1033a10.84432 10.84432 0 0 0 5.5724-2.5142 10.84491 10.84491 0 0 0 3.3271-5.1286c.5508-1.7214.9295-3.4427 1.4287-5.1641.2237-.7229.6197-1.2221 1.2566-1.2566a.89512.89512 0 0 1 .4067.0674.89441.89441 0 0 1 .3334.2425c.3099.6541 1.4632 1.4804 1.2567.2238ZM36.528 58.954a3.04714 3.04714 0 0 0-.6674-1.8657 3.04725 3.04725 0 0 0-1.6737-1.0606c-3.0468-.9124-6.0247-2.0312-9.0027-3.1157-1.5836-.5853-3.0984-1.3082-4.6648-1.9279-.5681-.241-1.2394-.6541-1.7214-.5164-6.0419 1.5492-12.13553 3.0468-17.54058 6.369a1.6009 1.6009 0 0 0-.723 1.1705c.13771 4.6649.34429 9.3298.55085 13.9946a4.87164 4.87164 0 0 0 .93333 2.8109 4.87108 4.87108 0 0 0 2.38887 1.7507c3.58042 1.532 7.07483 3.2878 10.56913 5.0264a5.59365 5.59365 0 0 0 2.8304.9199 5.59418 5.59418 0 0 0 2.9017-.6617c2.9952-1.5837 6.3002-2.582 9.4502-3.8731 1.205-.4992 2.3239-1.1533 3.5289-1.6008a3.18499 3.18499 0 0 0 1.4328-1.1635 3.18449 3.18449 0 0 0 .5467-1.7628l.2582-1.8763.8607-8.9338c-.1033-1.2222-.1377-2.4616-.2582-3.6837ZM4.01154 56.3891c4.61324-1.5148 9.24366-3.0295 13.87416-4.4755a2.84098 2.84098 0 0 1 1.7213 0c4.0108 1.4976 8.0043 3.064 12.0495 4.6133.3787.1377.7402.3098 1.4632.6024-1.0328.4648-1.7214.8263-2.496 1.1017-3.9419 1.4115-7.8838 2.823-11.8257 4.2001a2.39228 2.39228 0 0 1-1.532.1377c-4.6649-1.7213-9.31253-3.6321-14.25282-5.56a6.41098 6.41098 0 0 1 .99836-.6197Zm.98119 18.7456a3.28776 3.28776 0 0 1-2.42712-3.4427c0-4.1313-.49918-8.2625-.79181-12.3765v-1.4288c1.72136.7058 3.27055 1.3943 4.87142 2.0484 2.85745 1.1361 5.71488 2.3066 8.60678 3.4427.3422.0709.6454.2676.8494.5514.204.2837.2941.6337.2523.9807 0 4.4296.0746 8.8535.2238 13.2716v2.8402l-.5509-.2582c-3.5632-2.0828-7.2641-3.9419-11.03387-5.6288Zm28.74667-.5853c-5.078 2.1173-10.0355 4.1485-14.9758 6.2658l-.5164.1893-.1033-2.5992c0-4.3378 0-8.6068-.2065-12.979a1.5663 1.5663 0 0 1-.0153-.6467c.04-.2142.1243-.4178.2474-.5976.1231-.1798.2824-.332.4677-.4467.1853-.1148.3925-.1896.6084-.2198 4.4238-1.4631 8.8133-3.064 13.22-4.6132l2.6164-.9295a59.91881 59.91881 0 0 1-1.3426 16.5766Z" fill="#000"/><path d="M123.457 56.9744s12.049-6.6616 16.852-5.801c1.342.241 16.043 5.801 16.043 5.801.298.1219.557.3254.746.5871.188.2618.3.5713.321.8933a97.79962 97.79962 0 0 1-1.067 15.8537s-.207.5336-1.55 1.3426c-1.342.8091-14.493 6.042-14.493 6.042-1.193-.0363-2.364-.3176-3.443-.8263-1.291-.7574-12.05-5.9731-12.187-6.0247-.625-.4751-1.068-1.1492-1.257-1.9107 0-.8263-.637-15.1307-.637-15.1307.035-.1827.114-.3539.231-.4981.118-.1443.269-.2571.441-.3282Z" fill="#FF8600"/><path d="M158.228 58.954a3.05206 3.05206 0 0 0-.668-1.8657 3.04653 3.04653 0 0 0-1.673-1.0606c-3.047-.9124-6.025-2.0312-9.003-3.1157-1.584-.5853-3.098-1.3082-4.665-1.9279-.568-.241-1.239-.6541-1.721-.5164-6.059 1.5492-12.136 3.0468-17.541 6.369-.2.1291-.368.3011-.494.5036-.125.2025-.203.4303-.229.6669.138 4.6706.321 9.3355.551 13.9946.009 1.0118.334 1.9953.93 2.8132.596.8179 1.432 1.4292 2.392 1.7484 3.581 1.532 7.075 3.2878 10.569 5.0264.834.5668 1.805.898 2.81.9586 1.006.0606 2.01-.1517 2.905-.6143 2.995-1.5837 6.3-2.5821 9.45-3.8731 1.188-.4992 2.324-1.1533 3.529-1.6008.58-.2387 1.077-.6442 1.426-1.1652.349-.5209.536-1.1339.537-1.7612.103-.6196.189-1.2565.275-1.8762l.861-8.9339c-.052-1.3082-.052-2.5476-.241-3.7697Zm-32.517-2.5649c4.614-1.5148 9.227-3.0295 13.874-4.4755.56-.178 1.162-.178 1.722 0 4.011 1.4976 7.987 3.064 12.049 4.6133.379.1377.758.3098 1.463.6024-1.032.4648-1.721.8263-2.478 1.1017-3.942 1.4115-7.884 2.823-11.843 4.2001-.475.2145-1.009.263-1.515.1377-4.665-1.7213-9.313-3.6321-14.253-5.56.303-.2427.632-.4506.981-.6197Zm.981 18.7456a3.32291 3.32291 0 0 1-1.839-1.2831c-.446-.628-.66-1.3914-.605-2.1596 0-4.1313-.499-8.2625-.774-12.3765v-1.4288c1.721.7058 3.27 1.3943 4.871 2.0484 2.857 1.1361 5.715 2.3066 8.607 3.4427.344.0671.649.263.854.5477.205.2847.293.6367.247.9844 0 4.4296.081 8.8535.241 13.2716v2.8402l-.533-.2582c-3.598-2.0828-7.299-3.9419-11.069-5.6288Zm28.747-.5853c-5.078 2.1173-10.053 4.1485-14.976 6.2658l-.516.1893-.103-2.5992c0-4.3378 0-8.6068-.224-12.979-.047-.2133-.05-.4339-.008-.6482s.128-.4176.253-.597c.124-.1794.285-.3312.47-.4457.186-.1146.394-.1894.61-.2198 4.424-1.4632 8.814-3.0641 13.22-4.6133l2.6-.9295c.339 5.5604-.107 11.1408-1.326 16.5766Z" fill="#000"/></g><defs><clipPath id="a"><path fill="#fff" transform="translate(.5 .5828)" d="M0 0h160v166.111H0z"/></clipPath></defs></svg>
