<svg width="161" height="167" fill="none" xmlns="http://www.w3.org/2000/svg"><g clip-path="url(#a)"><path d="M28.954 120.388a17.40095 17.40095 0 0 0 2.5303-5.508c.2582-2.169 1.7215-.517 1.842 0 .246.521.5523 1.012.9123 1.463l5.5428-4.149s3.3566-1.205 1.7213 3.856c0 0 3.3222-2.1 1.6352 2.634 0 0 2.9952-.689 1.7214 3.924l-5.6289 5.164-10.2764-7.384ZM109.41 112.831c0-.189-1.325-4.82 0-5.732 1.326-.912 3.632 2.857 3.632 2.857s5.733 6.077 8.366 7.179c0 0 .758.24.431 1.859-.328 1.618-3.306 13.151-3.306 13.151-4.727-.461-9.34-1.736-13.633-3.77-5.5425-3.064-6.5409-5.319-6.2138-6.266.327-.947 1.7218-.533 1.7218-.533s-3.0129-4.769.189-4.441c0 0-1.7215-4.166 1.48-2.824 0 0-2.599-4.286-.327-4.114l7.66 2.634ZM55.5317 36.248s-1.2223-7.0059 3.718-7.6945c4.9403-.6885 10.0871-3.5976 12.6864-12.5831 2.5992-8.98544 15.2342-3.8902 15.8883-1.1188.6541 2.7713-3.6148 12.1699.4476 13.7708 4.0624 1.6009 5.5771 1.8763 5.9386 5.2673.3614 3.3911 0 2.8919 0 2.8919a2.75377 2.75377 0 0 1 1.7213-.6042c.6258 0 1.2329.2131 1.7214.6042a5.5427 5.5427 0 0 1 2.2115 2.936c.3822 1.2017.3422 2.4977-.1115 3.674a5.80083 5.80083 0 0 1-2.1847 3.1659 5.80174 5.80174 0 0 1-3.6852 1.1031s-4.3549 9.2265-7.3328 12.411-.4993 9.9666-.4993 9.9666l-7.2298 6.0764a4.23358 4.23358 0 0 1-2.8352.5619 4.23455 4.23455 0 0 1-2.5354-1.3881l-.8949-5.7149-1.0158-4.9231-2.1344-.8091s-7.4363-.2926-11.5847-12.0494l-.9296-3.5977s-5.6977.1894-6.61-3.4427c-.9123-3.6321.8091-6.5239 3.0813-7.0403l1.9966.4647.1723-1.9279Z" fill="#fff"/><path d="M78.2708 17.3303s1.1017 1.4115 2.8575-.3443c1.7557-1.7557 3.4427-1.377 4.0796-.5508.6369.8263 1.5147 1.7214 1.05 5.1641-.4648 3.4427-2.7026 8.0215 1.9279 9.5363 4.6304 1.5148 5.8871.5508 5.8871.5508l-.9985-1.7213s4.2345 2.6853 6.0075 2.3754c1.7731-.3098 1.9451-.8607 1.9791-1.7213 0 0 2.496.7057 2.996-.1549.499-.8607-2.1-2.6854-2.066-3.6321.148-3.2535.096-6.513-.155-9.7601-.361-.7746-2.9089-8.29693-7.3328-9.05432-4.4239-.7574-8.0388-1.11889-11.9291.72296a20.31162 20.31162 0 0 0-5.7837-5.06078C72.5797 1.3956 67.663.78102 63.0196 1.9586c-5.2674 1.72136-8.3141 4.92308-8.7617 7.40183-.4475 2.47877-2.2379 9.27807-8.3659 10.58637-6.1281 1.3082-1.0845 3.5804 0 3.7697 1.4862.2773 2.9999.3813 4.5101.3099 0 0-1.997 3.4427 3.2532 3.873 0 0 .6886 3.0468 7.815 2.5132 7.1264-.5336 9.5536-2.7714 10.5864-4.7509 1.0328-1.9796 2.2893-7.2986 2.8917-8.0732.6025-.7746 1.601-2.5132 3.3224-.2582Z" fill="#FF8600"/><path d="M36.3042 120.44c1.7214-1.722 3.2706-3.443 4.9575-5.01.1549-.155.6713 0 1.0155 0 0 .431 0 1.05-.241 1.291-1.2049 1.171-2.4786 2.255-3.7696 3.305-.4799.329-.9935.606-1.5321.827l-.4303-.413ZM39.0066 123.159c.2434-.536.5255-1.054.8437-1.549.9467-1.257 1.9279-2.496 2.9607-3.701.1893-.241.6368-.258.9638-.396 0 .396.3099.809.2238 1.154-.1257.457-.3622.877-.6886 1.222-1.0945 1.477-2.5873 2.611-4.3034 3.27Z" fill="#000"/><path d="M94.7271 46.7483c.1894-3.2534.3442-6.3002.5852-9.347 0-.2582.6024-.7402.809-.6885a4.66542 4.66542 0 0 1 1.9796.9811 5.47428 5.47428 0 0 1 1.1874 2.8883 5.4732 5.4732 0 0 1-.585 3.0676 4.75019 4.75019 0 0 1-1.5434 2.1201 4.75029 4.75029 0 0 1-2.4328.9784Z" fill="#fff"/><path d="M104.883 153.644c-6.8855-.619-13.4266-1.204-19.985-1.841a6.24582 6.24582 0 0 1-1.8245-.844c.6357-.269 1.3092-.437 1.9966-.499 4.6133.344 9.2093.843 13.7709 1.17 3.598.259 7.212.31 10.81.551.692.149 1.355.411 1.963.775-.632.31-1.304.53-1.997.654-1.636.103-3.323.034-4.734.034ZM89.9245 156.64c-.5585.181-1.1362.297-1.7214.344-7.1264-.161-14.2471-.339-21.3621-.534-.6733-.081-1.3367-.231-1.9796-.447v-.568c.5574-.186 1.1356-.301 1.7214-.345 7.2297.15 14.448.327 21.6548.534.5858.073 1.1626.205 1.7213.396l-.0344.62ZM71.0241 50.7418a.70588.70588 0 0 0 .4304-.1033 7.04058 7.04058 0 0 1 3.449-1.5348 7.04003 7.04003 0 0 1 3.7461.4676h.1721a.75725.75725 0 0 0 .2641-.2162.75746.75746 0 0 0 .1425-.3102.75764.75764 0 0 0-.0082-.3412.75773.75773 0 0 0-.1574-.3029l-1.377-.6025a10.77513 10.77513 0 0 0-2.4444-.2066 8.60761 8.60761 0 0 0-4.6648 1.8419.84452.84452 0 0 0-.1529.371.84361.84361 0 0 0 .0359.3997.84286.84286 0 0 0 .5646.5375ZM78.8388 38.9161c-.8607 0-.9466 1.7214-.9466 1.7214-.0481.2592.003.5271.1433.7503.1403.2233.3595.3856.614.4546.6197.1205 1.2566-.5852 1.2738-1.3082.0172-.723-.2238-1.6009-1.0845-1.6181ZM67.151 39.4497c-.8607 0-.9641 1.6353-.9641 1.6353a1.06724 1.06724 0 0 0 .7575 1.2049c.6369.1205 1.2738-.5852 1.2738-1.3082 0-.7229-.2754-1.5148-1.0672-1.532ZM75.4479 44.3728c0-.2065-.4819-.4475-.7401-.4648-.2582-.0172-.9984 0-1.5665.1033-.6369 0-.7575-.3615-.7575-.3615v-5.164c0-.3099-.1548-.4132-.3097-.4304-.1549-.0172-.2927.4304-.2927.4304a14.66571 14.66571 0 0 0-.6024 6.4034c.0799.1869.2052.3509.3645.4771.1593.1262.3476.2107.5478.2459a15.642 15.642 0 0 0 2.9263-.5509.87776.87776 0 0 0 .2996-.2915.87794.87794 0 0 0 .1307-.397ZM68.941 35.5078a3.1497 3.1497 0 0 0-1.7682-1.4668 3.14961 3.14961 0 0 0-2.2941.1242 1.42794 1.42794 0 0 0-.4648.7574s.0001.3098.155.4131c.1039.1004.236.1665.3787.1893h.2238c.2926 0-.0001-.3098.7573-.4475a2.23809 2.23809 0 0 1 1.4803.4303c.2542.2696.5959.4404.9641.482.6885.0861.5679-.482.5679-.482ZM107.827 121.076c-1.894-1.205-3.787-2.409-5.715-3.563l-.499-.275c-.379-.258-1.171-.758-1.429-.534-.2585.224-.2584 1.326.878 2.031 2.203 1.395 4.492 2.651 6.782 3.908.895.482 1.583.103 1.566-.258-.017-.362-1.583-1.309-1.583-1.309ZM109.341 117.152c-1.996-1.016-4.01-2.014-6.059-2.961l-.499-.224c-.413-.224-1.257-.637-1.48-.396-.224.241-.121 1.36 1.067 1.928 2.341 1.171 4.751 2.204 7.161 3.202.929.396 1.583 0 1.514-.413-.068-.413-1.704-1.136-1.704-1.136ZM108.05 125.053c-.395-.345-1.721-1.171-1.721-1.171-1.532-.878-3.081-1.721-4.682-2.53 0 0-1.481-.775-1.9281-.431-.4475.345.0002 1.119.9981 1.825 1.894 1.016 3.856 1.894 5.819 2.772 1.17.533 1.91-.104 1.514-.465ZM81.0939 5.62509c0-.15492-.2582-.27541-.3959-.39591C76.3602 1.11514 71.0584.06511 65.3952.75365c-6.0076.6369-10.3281 3.44272-12.2216 9.63955a32.15465 32.15465 0 0 1-1.7214 3.9419 8.88178 8.88178 0 0 1-2.4675 3.0789 8.88058 8.88058 0 0 1-3.5572 1.7065s-2.978.6197-2.8403 1.1189c.1377.4992 1.1533.6369 3.4427.4992h.3787a8.15837 8.15837 0 0 0 3.4923-1.3311 8.1588 8.1588 0 0 0 2.5324-2.7485 50.8083 50.8083 0 0 0 2.7714-6.6272 9.96523 9.96523 0 0 1 1.8842-3.61902 9.96774 9.96774 0 0 1 3.1766-2.56069c4.0727-1.8663 8.6958-2.14259 12.9617-.7746A19.9508 19.9508 0 0 1 80.216 6.7784c.8263.77461 1.5491 1.11888 1.6352.36148a2.16921 2.16921 0 0 0-.2246-.83437 2.16864 2.16864 0 0 0-.5327-.68042ZM101.733 30.4126c-.121-.2754-1.136-.482-1.136-.482a6.69463 6.69463 0 0 1-2.7543-2.0656 7.69458 7.69458 0 0 1-1.8935-4.3378s-.2753-1.291-.7917-1.3255c-.5164-.0344-.5854 1.1361-.5165 1.8247a7.04134 7.04134 0 0 0 .5396 2.7132c.3575.8598.882 1.6402 1.5432 2.2959 1.0066 1.0948 2.3771 1.7861 3.8562 1.9451 1.17.0689 1.273-.2926 1.153-.568Z" fill="#000"/><path d="M100.339 11.8564c-1.6411-2.31638-3.9787-4.0482-6.6725-4.94305a13.32316 13.32316 0 0 0-8.3036-.03168s-2.5821.87789-2.5993 1.30823c-.0172.43034.4304.86068 1.5665.48198a23.87527 23.87527 0 0 1 4.4927-.67133 12.27324 12.27324 0 0 1 5.3427 1.11704 12.27285 12.27285 0 0 1 4.3301 3.32311 12.2687 12.2687 0 0 1 2.4604 4.8719c.445 1.7881.481 3.6533.106 5.4572-.199 1.3796-.233 2.7779-.104 4.1657 0 .9811.241 1.8246.603 1.9279.361.1033.465-.4476.465-.4476.103-.4303.223-.8606.292-1.3082.172-1.3427.241-2.6853.517-4.0108.383-1.9443.359-3.947-.07-5.8817a14.34907 14.34907 0 0 0-2.426-5.3587ZM96.6893 31.2044c-.4476-.2065-2.3583-1.3598-2.3583-1.3598l-.8607-.7058a6.54112 6.54112 0 0 1-2.5475-6.0936c0-.5853.1893-1.1533.1893-1.7214-.0434-.3479-.1299-.6891-.2581-1.0156-.3098.2066-.7746.3615-.9296.6542-.837 1.5396-1.0556 3.3404-.611 5.0356a6.8852 6.8852 0 0 0 3.0038 4.0875l.5507.2927a20.55227 20.55227 0 0 0 3.2189 1.6008c.9296.2582 1.1189-.568.6025-.7746ZM60.0072 18.3287c0-.0861-.5165 0-.7403.1549a3.44465 3.44465 0 0 0-.6541.5853 13.54715 13.54715 0 0 1-11.6192 4.2345s-2.6852-.723-2.7369-.3787c-.0516.3443.5853 1.05 3.2534 1.5664a12.049 12.049 0 0 0 6.5163-.2854 12.04986 12.04986 0 0 0 5.4128-3.6392c.3576-.3853.6276-.8433.7918-1.3427a1.13662 1.13662 0 0 0-.2238-.8951ZM68.5452 19.1894c-.3959-.4304-1.0328.5852-1.0328.5852a79.50805 79.50805 0 0 1-6.3517 6.0248c-2.4443 1.8591-5.5084 1.7213-8.5036 1.4115 0 0-1.0672-.0861-.8606.3615a9.0042 9.0042 0 0 0 3.7354.9123H56.9605a12.34182 12.34182 0 0 0 5.2244-1.3687 12.34275 12.34275 0 0 0 4.1399-3.4683c.7574-.8607 2.5991-4.0452 2.2204-4.4583Z" fill="#000"/><path d="M91.8696 31.5831c-.1893-.3787-2.0485-.6025-2.0485-.6025h-.327a3.5619 3.5619 0 0 1-1.4147-.3374 3.56138 3.56138 0 0 1-1.162-.8746 3.56353 3.56353 0 0 1-.866-2.7126c.0871-1.3867.2944-2.7633.6197-4.1141.1721-1.05.5508-2.0656.6369-3.0984a4.23592 4.23592 0 0 0-.1082-1.8315 4.23579 4.23579 0 0 0-.8727-1.6138 4.2349 4.2349 0 0 0-1.4734-1.0932 4.23583 4.23583 0 0 0-1.7974-.3674 3.32295 3.32295 0 0 0-1.1189.1894 2.63427 2.63427 0 0 0-1.0066.7992 2.63236 2.63236 0 0 0-.5082 1.1803.65397.65397 0 0 0 .176.3749.65435.65435 0 0 0 .3661.1939.65432.65432 0 0 0 .4091-.0647.65483.65483 0 0 0 .2881-.2975c.1461-.2121.338-.3887.5614-.5168.2235-.1281.4727-.2045.7296-.2234 2.0656.1033 3.0297 1.6353 2.4616 4.1313-.241.9811-.6885 1.9107-.8434 2.909a23.93956 23.93956 0 0 0-.4304 4.5616c.0474.8538.343 1.6751.8506 2.3631a4.38918 4.38918 0 0 0 2.0067 1.51c.2707.1172.5538.2038.8437.2582.8727.2218 1.7677.3431 2.668.3615 1.3598-.0689 1.532-.7402 1.3599-1.0845ZM78.7528 17.4336a2.61632 2.61632 0 0 0-.723-1.6181 2.27195 2.27195 0 0 0-.9983-.4131c-.6834-.1-1.3795.0603-1.9502.4493a2.75358 2.75358 0 0 0-1.1311 1.6507c-.6025 1.6009-.964 3.305-1.4976 4.9575a9.74242 9.74242 0 0 1-3.2004 4.8686 9.74242 9.74242 0 0 1-5.4064 2.1718s-3.5461.241-3.7526.7918c-.2066.5509 2.0486.9295 4.2864.7746h.1376c.2204-.0176.439-.0521.6541-.1033a10.84325 10.84325 0 0 0 5.6026-2.5014 10.84467 10.84467 0 0 0 3.3484-5.1414c.5508-1.7213.9296-3.4427 1.4288-5.164.2238-.723.6197-1.2222 1.2566-1.2566a.89525.89525 0 0 1 .4068.0673.89486.89486 0 0 1 .3333.2425c.2582.6541 1.4116 1.4804 1.205.2238Z" fill="#000"/><path d="M150.344 103.691c-7.109-8.3833-16.232-14.4597-25.39-20.4156-7.408-4.8235-15.546-8.4214-24.099-10.6552-1.7213-.4647-3.4426-.6368-5.164-1.0844-.6369-.1549-1.5664-.6197-1.7214-1.0845a2.01347 2.01347 0 0 0-.6579-1.2161c-.3559-.315-.812-.494-1.2872-.5052-1.7214-.241-3.4428-.4131-5.6633-.6541V62.361a2.47883 2.47883 0 0 1 .6713-1.3771 28.5407 28.5407 0 0 0 6.5413-11.447c.0974-.213.2403-.402.4187-.5537.1785-.1517.3881-.2624.614-.3242 1.8278-.1666 3.5203-1.0336 4.7235-2.4196 1.203-1.386 1.824-3.1836 1.732-5.0167.113-.8042.042-1.6236-.207-2.3966-.25-.7729-.671-1.4793-1.2327-2.0658a5.37139 5.37139 0 0 0-2.0107-1.3207 5.37107 5.37107 0 0 0-2.3854-.3105 21.59177 21.59177 0 0 0-.5507-2.7886s-.5337-1.3943-1.2911-1.291c-.7574.1033 0 1.4632 0 2.582 0 2.255.155 4.51 0 6.765-.1437 6.4685-2.4462 12.7033-6.5412 17.7127a9.58685 9.58685 0 0 0-2.2151 3.8652c-.4247 1.4444-.503 2.9685-.2291 4.449.1768.9029.286 1.8177.327 2.7369.0404.4788-.1078.9545-.4131 1.3255-1.8763 1.7213-3.7526 3.305-5.7665 4.8198-.6369.4819-1.8763.9295-2.3927.6369a4.28603 4.28603 0 0 1-1.7214-2.4444c-.6369-2.4959-.9984-5.164-1.4976-7.6256a3.33957 3.33957 0 0 0-.9479-1.8292 3.33889 3.33889 0 0 0-1.8407-.9249 21.48074 21.48074 0 0 1-4.5788-1.7214 12.94595 12.94595 0 0 1-4.0782-3.7262 12.94354 12.94354 0 0 1-2.1531-5.0871 71.625 71.625 0 0 1-2.6682-16.6455 2.3579 2.3579 0 0 0-.1032-.9984s-.1033-2.7026-.6369-2.6165c-.5336.0861-.9812 2.0656-1.1361 3.4427 0 .4648-.1033.9468-.1721 1.4115a4.90771 4.90771 0 0 0-2.1057.2258 4.90529 4.90529 0 0 0-1.8142 1.0922 4.90403 4.90403 0 0 0-1.1849 1.7551 4.9065 4.9065 0 0 0-.3348 2.091c-.2065 3.8558 2.3584 6.2829 7.1609 6.7305.4132 1.3599.7746 2.7714 1.2566 4.1313a17.97046 17.97046 0 0 0 5.4395 8.6067 19.95172 19.95172 0 0 0 6.8855 3.0813c.4131.1205 1.0328.3787 1.1016.6885.4992 2.1861.8951 4.4067 1.2394 6.1797-2.1345 1.5664-3.9936 2.9607-5.8871 4.3206a3.44432 3.44432 0 0 1-1.2221.6197c-1.5091.2363-2.999.5815-4.4583 1.0328a52.813 52.813 0 0 0-16.2497 10.8789c-5.0608 4.8026-9.7773 9.9667-14.4077 15.1994-5.4086 6.222-9.9114 13.176-13.375 20.656-2.0931 4.218-2.8555 8.973-2.1862 13.634.2044 2.236 1.1101 4.35 2.5878 6.041 1.4776 1.691 3.4517 2.872 5.6404 3.374 11.9118 3.305 20.2776-5.525 21.7924-14.941a2.9092 2.9092 0 0 0-.1685-2.109 2.90813 2.90813 0 0 0-1.5529-1.437c-.6507-.377-1.2721-.803-1.8589-1.274.6049-.418 1.1801-.878 1.7213-1.377.9812-1.119 1.9107-2.255 2.7886-3.443.1549-.223-.1377-.757-.2066-1.136-.3413.11-.6659.266-.964.465-.7058.723-1.3255 1.532-2.0141 2.272-2.3754 2.531-2.4099 2.565-5.164.672-2.3411-1.584-4.6133-3.254-6.8855-4.923 1.4304-1.656 2.1537-3.807 2.0141-5.991.4475.775.9124 1.549 1.3944 2.359-.3443.516-.7575 1.101-1.1534 1.721.2077.055.4241.068.6369.038.2128-.029.4176-.101.6024-.21 1.9968-1.446 3.9765-2.892 5.9388-4.372.313-.228.5716-.522.7573-.861.1205-.258.1722-.792 0-.895a1.1573 1.1573 0 0 0-.4854-.175c-.1729-.021-.3482-.002-.5129.054-.5086.276-.9826.611-1.4116.999-1.1705.964-2.3238 1.962-3.4427 2.943-.207-.731-.4717-1.445-.7918-2.134-.1053-.206-.2657-.379-.4631-.5a1.25468 1.25468 0 0 0-.6558-.185c-.2315 0-.4584.064-.6558.185-.1974.121-.3578.294-.4631.5-.4542.888-.8564 1.802-1.2049 2.737-.327.86-.6025 1.721-.9468 2.737-.4225-.368-.8775-.697-1.3597-.982-.3099-.155-.8609-.327-1.033-.172-1.5837 1.412-3.15 2.875-4.6476 4.39-.3098.31-.3271.878-.482 1.342l.3271.224 1.5835-1.17c1.0156-.775 2.0141-1.722 3.0986-2.324.212-.095.4443-.135.6757-.117.2315.018.4549.094.6498.22 4.1994 3.619 8.7757 6.776 13.6502 9.416l1.3255.792c-.6496 4.153-2.5121 8.022-5.3534 11.12-4.3895 5.336-15.4923 5.783-20.2776 0-.5552-.596-.9464-1.326-1.136-2.118-.9338-5.214-.1486-10.59 2.2376-15.32a91.95565 91.95565 0 0 1 8.6068-13.77 173.83316 173.83316 0 0 1 15.148-17.0591l2.1345-1.928c.5508-.5164 1.1017-1.0328 1.7214-1.5148A70.00766 70.00766 0 0 1 62.8304 79.127c2.4271-1.1017 2.8058-.723 2.8403 1.9451 0 1.9624.4129 3.9075.6711 6.0936 0 0 1.4289 13.1513 10.8963 14.8893 9.4675 1.739 16.6111-8.5031 16.6111-8.5031 3.5792-5.8049 4.982-12.6916 3.959-19.4341.6025.1377 1.1533.2238 1.7214.3787 13.4254 3.6566 25.9254 10.1092 36.6824 18.9349 4.503 3.5439 8.732 7.4226 12.652 11.6016 5.232 5.489 8.6 12.489 9.622 20.003.232 2.294.157 4.61-.224 6.885-.574 2.626-1.928 5.017-3.885 6.86-1.957 1.843-4.424 3.052-7.08 3.468-5.5.916-11.147.321-16.335-1.721l-9.003-3.598c-.315-.113-.62-.251-.912-.413-1.722-1.033-1.894-1.429-1.412-3.443 1.102-4.699 2.135-9.398 3.185-14.098.172-.74.292-1.48.447-2.358 6.748 2.376 13.272 4.596 19.727 6.989 2.53.929 2.134.396 2.134 3.305 0 .878.104 1.721.155 2.788 1.842-.654 1.24-2.272 1.928-3.305l2.238 2.6c.224-.379.43-.568.396-.689-.672-1.928-.895-4.131-3.288-4.992-4.854-1.721-9.674-3.443-14.511-5.284-2.496-.913-5.009-1.722-7.505-2.651-1.188-.431-2.255-.586-2.978.774-3.095-1.75-5.782-4.138-7.884-7.006-.617-.923-1.358-1.758-2.203-2.478-1.257-1.119-2.462-.809-3.012.791-.229.823-.31 1.68-.241 2.531.084.667.234 1.324.447 1.962-.964-.224-1.876-.533-2.788-.809h-.173c-1.015-.327-2.909-1.136-3.322-1.325-.263-.124-.558-.16-.843-.104-.413 0-.603.689 0 1.309 1.642 1.033 3.421 1.833 5.284 2.375 1.009.345 2.046.604 3.099.775.74.12 2.995.602 3.012.241-.004-.245-.088-.481-.241-.672-.585-.843-2.53-.361-2.289-2.134.155-1.257-.947-2.513-.138-4.166.629.64 1.205 1.331 1.721 2.066 1.947 3.184 4.735 5.769 8.056 7.471.199.075.381.19.535.338.154.148.276.325.36.521.083.196.126.407.126.62.001.213-.042.424-.126.621-.964 3.735-1.842 7.488-2.754 11.223-.089.313-.204.618-.344.912-1.567-.292-3.012-.585-4.476-.792-4.151-.706-8.084-2.355-11.498-4.819 0 0-1.636-1.291-2.479-.844-.8435.448.4475 1.721 1.291 2.238 2.233 1.503 4.616 2.772 7.109 3.787 3.16.915 6.366 1.662 9.605 2.238-.671 2.151.568 3.649 2.445 4.888.352.361.56.839.585 1.343.723 5.302 1.36 10.603 2.152 15.888.206 1.412.223 3.098 1.721 3.58v3.443c-22.948 3.69-46.3453 3.609-69.2674-.241l.1893-.499v-3.202c.7058-.378.4476-1.222.2583-2.341-1.1706-6.971-2.1861-13.977-3.1845-20.983-.3443-2.341-.5166-4.682-.8092-7.316l-.9122-7.161s-.8951-1.222-.8951 1.068c0 2.289.2927 5.164.2927 5.164.2754 3.89.2065 7.815.7745 11.653.8607 5.939 2.1345 11.826 3.219 17.747 0 .276 0 .758-.1377.861-1.3254.878-1.4632 1.842-.3099 2.875-1.5148 2.151-1.3599 2.737 1.0328 3.649.844.351 1.7289.594 2.6337.723 6.369.637 12.738 1.394 19.1242 1.721 10.8618.637 21.7407 1.377 32.7055 0 5.354-.671 10.707-1.274 16.06-1.979 1.567-.207 1.911-.93 1.515-2.445-.128-.531-.128-1.086 0-1.618.465-1.566.241-2.082-1.222-2.926-.444-.281-.76-.727-.878-1.239-.671-4.923-1.256-9.846-1.876-14.77 0-.516-.138-1.015-.224-1.721 1.154.499 2.083.878 2.978 1.308 6.899 3.518 14.691 4.896 22.378 3.959 6.679-.895 12.583-8.073 12.979-14.011.413-10.552-3.942-19.142-10.38-26.75ZM95.2607 37.4013c0-.2582.6024-.7402.8089-.6885a4.66485 4.66485 0 0 1 1.9796.9811 5.47467 5.47467 0 0 1 1.1877 2.8883 5.47418 5.47418 0 0 1-.5852 3.0676 4.75094 4.75094 0 0 1-1.5434 2.1201 4.75029 4.75029 0 0 1-2.4328.9784c.241-3.2534.3959-6.2141.6369-9.347h-.0517Zm-44.4281 4.8542a7.62554 7.62554 0 0 1 1.4286-3.0468 2.23776 2.23776 0 0 1 1.7214-.4475c.327 0 .654.8262.7401 1.3082.3959 2.3583.7229 4.7337 1.0844 7.1781a4.26918 4.26918 0 0 1-2.0485-.1208 4.26892 4.26892 0 0 1-1.7556-1.0629 4.2674 4.2674 0 0 1-1.0567-1.7592 4.26828 4.26828 0 0 1-.1137-2.0491Zm36.6647 28.1098c1.0501-.6886 2.9092-.1205 4.7854-.1205l-3.5288 10.3281-8.9854-3.9075a78.40347 78.40347 0 0 1 7.7288-6.3518v.0517Zm-20.1742 6.8854c1.4804-1.0672 2.9262-2.1517 4.2-3.0984l3.4427 3.4427-4.8886 4.6476-2.9434-3.5804c-.3787-.4648-.4304-.9295.1893-1.3771v-.0344Zm10.7412 22.9803c-9.1059-1.5494-10.1905-13.9088-10.1905-13.9088-.3098-1.4459-.5852-2.8746-.8779-4.2861l.4131-.155c.4846.3782.9501.7803 1.3944 1.205.1812.2422.4163.4389.6867.5743.2705.1355.5688.206.8712.206.3025 0 .6008-.0705.8712-.206a1.9449 1.9449 0 0 0 .6867-.5743l3.4427-3.1501 1.4286-1.3426c.4992 2.4787.9296 4.682 1.3255 6.6616l2.909 14.993c-.9816.14-1.9775.146-2.9607.017v-.034Zm18.0915-19.2794a64.87561 64.87561 0 0 1-2.5648 9.0888c0 .1377-.0862.2754-.1378.4131a5.32067 5.32067 0 0 1-.4474 1.0156 4.2709 4.2709 0 0 1-.6026.9984c-1.3083 1.9107-4.8198 6.3346-9.8634 7.5565l-2.7886-13.9772c-.5336-2.7197-.9811-5.4739-1.5148-8.5207l2.6682 1.0845 6.5238 2.7714c1.7214.7057 2.4788.5336 3.2534-1.1706.9295-2.0484 1.6181-4.2001 2.3927-6.3174.1721-.4475.2754-.9123.5852-1.9107.8779 1.0329 1.9281 1.7214 2.083 2.5304.5045 2.1183.6442 4.3071.4131 6.4723v-.0344Z" fill="#000"/><path d="M82.1095 110.886v-.895a7.39136 7.39136 0 0 0-1.9107-3.03c-1.2557-.842-2.6858-1.389-4.183-1.601-1.889-.37-3.848-.053-5.524.894-1.676.947-2.9586 2.461-3.6163 4.27a7.38605 7.38605 0 0 0-.9124 3.443c.1205.844.9123 1.498 1.4459 1.326.2053-.112.3821-.269.5165-.46.1344-.191.2228-.411.2582-.642a7.5236 7.5236 0 0 1 1.7214-4.665c.9482-1.135 2.2797-1.882 3.7421-2.101 1.4625-.219 2.9544.106 4.1933.913 3.2706 1.722 2.8747 3.908 1.5321 5.664-1.4206 1.359-3.0547 2.475-4.8372 3.305-.675.299-1.2661.761-1.7213 1.342-.3293.357-.5134.823-.5163 1.309 0 .809 1.3597 6.403 1.3597 6.403.1033.499.224.981.3617 1.429 0 0 .7401 3.442 2.1172 3.58h.1376c.192.024.3866-.018.551-.12h.1032c.0996-.107.1811-.229.241-.362.0886-.575.0475-1.164-.1204-1.721-.7746-2.169-2.6337-7.609-2.3927-8.968.1893-1.051 2.6336-2.221 4.7165-3.443.9662-.618 1.7368-1.498 2.2214-2.537.4847-1.04.6634-2.196.5155-3.333ZM79.0281 133.728c-.1594-.065-.3275-.105-.499-.12-.3501-.048-.7063-.023-1.0467.071-.3403.095-.6577.258-.9329.48-.2011.151-.3471.365-.4154.607-.0684.243-.0554.501.0367.735.1304.276.3165.522.5468.722.2302.2.4994.35.7907.441.2913.09.5981.12.9012.085.3031-.034.5959-.131.8596-.284 1.4288-.654.5336-2.444-.241-2.737ZM76.9627 34.4578a3.64936 3.64936 0 0 0 1.8497 1.7183 3.64988 3.64988 0 0 0 2.5226.1063s.7917-.3098.2753-.8262-1.5319.1893-2.4787-.5337c-.9467-.7229-1.2911-1.3254-1.8247-.9983-.5336.327-.3442.5336-.3442.5336Z" fill="#000"/></g><defs><clipPath id="a"><path fill="#fff" transform="translate(.5 .58151)" d="M0 0h160v166.111H0z"/></clipPath></defs></svg>
