<svg width="115" height="152" fill="none" xmlns="http://www.w3.org/2000/svg"><g clip-path="url(#a)"><path d="M113.263 54.088c-1.773-11.1026-7.863-19.2782-17.0191-25.3214-8.2535-5.452-17.5343-7.8864-27.3179-8.4669a55.39812 55.39812 0 0 0-20.6484 2.1861c-.9338.2985-1.3499-.0167-1.8303-.8027a37.0904 37.0904 0 0 0-9.4277-9.9968A62.74092 62.74092 0 0 0 10.476.43879c-.55997-.0069-7.29387-.53981-8.13794 4.66019-.70288 4.29168 4.25785 5.89282 6.36203 6.37882l.89774.181a58.13288 58.13288 0 0 1 10.30087 3.247c5.7703 2.4512 11.0011 5.6559 15.1421 10.4773 1.0847 1.2534.9778 1.8121-.5034 2.7139-7.6767 4.5559-14.4056 10.1235-18.7747 18.1503-2.0454 3.6751-2.9743 7.634-1.7123 11.5398 2.3408 7.2594 8.5033 8.7254 14.9154 6.9642a29.14107 29.14107 0 0 0 10.5716-5.7504c7.4245-6.009 11.9269-13.4842 11.4486-23.3708-.0477-1.0007.2305-1.6673 1.3745-1.9833 4.3519-.9465 8.7223-1.7627 12.2997-1.5287a59.3954 59.3954 0 0 1 10.1497.905c7.1236 1.3778 13.6118 3.9979 19.0211 8.9648 7.427 6.812 9.919 18.0335 5.8802 26.8245a29.13013 29.13013 0 0 1-9.3557 10.9756 103.12068 103.12068 0 0 1-22.1512 12.1482c-8.2636 3.4886-12.1939 9.1708-11.7343 18.1468.2096 4.093-.0209 8.191-.0913 12.29-.0007.05.7666 6.78 6.8462 6.855 4.6896.058 5.5251-5.263 5.6555-7.731.0555-4.51.1108-9 .1666-13.539-.0541-.734.1263-1.465.5151-2.09.3887-.624.9657-1.109 1.6478-1.384 2.0122-.975 3.9758-2.061 5.988-3.036 8.1598-4.0002 16.349-7.9497 23.2641-13.985 10.109-8.8263 14.983-19.7071 12.801-33.375Zm-77.0462-8.0589a22.15052 22.15052 0 0 1-8.5121 6.6157c-.3621.1655-.847.5696-1.2227.2149-.3757-.3546.0692-.7491.264-1.1368 2.7338-5.1667 7.1666-8.6124 12.1515-12.2313a10.83937 10.83937 0 0 1-2.6807 6.5375Z" fill="#FEA300"/><path d="M36.2168 46.0291a21.29004 21.29004 0 0 1-5.8646 5.2082l11.8037 5.4557c5.8294-5.5987 9.2235-12.4074 8.81-21.0631-.0477-1.0007.2305-1.6673 1.3745-1.9833-5.0129 1.0184-13.4428 5.835-13.4428 5.835a10.84027 10.84027 0 0 1-2.6808 6.5475Z" fill="url(#b)"/><path d="M34.5574 28.0973a93.77618 93.77618 0 0 1 13.5897-5.5832c-.8329.2298-1.2387-.1052-1.6998-.8309a37.09058 37.09058 0 0 0-9.4277-9.9968 60.33861 60.33861 0 0 0-10.6334-6.29138l-9.7323 8.25088c1.0953.3935 2.1802.8068 3.2647 1.2602 5.7702 2.4512 11.0012 5.6559 15.1422 10.4772 1.0848 1.2435 1.0078 1.8125-.5034 2.714Z" fill="url(#c)"/><path d="M62.287 150.978c3.932.048 7.1587-3.1 7.2071-7.032s-3.0999-7.159-7.0318-7.207c-3.932-.048-7.1587 3.1-7.2071 7.032s3.0998 7.159 7.0318 7.207Z" fill="#FEA300"/></g><defs><linearGradient id="b" x1="50.4188" y1="31.3228" x2="35.1726" y2="56.9271" gradientUnits="userSpaceOnUse"><stop stop-color="#FE5E00"/><stop offset=".09" stop-color="#FE6100" stop-opacity=".96"/><stop offset=".23" stop-color="#FE6800" stop-opacity=".85"/><stop offset=".43" stop-color="#FE7500" stop-opacity=".67"/><stop offset=".66" stop-color="#FE8600" stop-opacity=".42"/><stop offset=".92" stop-color="#FE9C00" stop-opacity=".1"/><stop offset="1" stop-color="#FEA300" stop-opacity="0"/></linearGradient><linearGradient id="c" x1="53561.6" y1="16615.8" x2="52828.9" y2="15821.4" gradientUnits="userSpaceOnUse"><stop stop-color="#FE5E00"/><stop offset=".09" stop-color="#FE6100" stop-opacity=".96"/><stop offset=".23" stop-color="#FE6800" stop-opacity=".85"/><stop offset=".43" stop-color="#FE7500" stop-opacity=".67"/><stop offset=".66" stop-color="#FE8600" stop-opacity=".42"/><stop offset=".92" stop-color="#FE9C00" stop-opacity=".1"/><stop offset="1" stop-color="#FEA300" stop-opacity="0"/></linearGradient><clipPath id="a"><path fill="#fff" transform="rotate(.705 -23.90193 190.01236)" d="M0 0h112.18v149.93H0z"/></clipPath></defs></svg>
