<svg width="32" height="31" fill="none" xmlns="http://www.w3.org/2000/svg"><circle cx="15.8899" cy="15.5" r="15.5" fill="#FFD8D8"/><g clip-path="url(#a)" fill="#EC4848"><path d="M15.8899 23.755c.486 0 .88-.394.88-.88s-.394-.88-.88-.88-.88.394-.88.88.394.88.88.88Z" stroke="#EC4848" stroke-linecap="round" stroke-linejoin="round"/><path fill-rule="evenodd" clip-rule="evenodd" d="M17.2051 8.91105a1.35358 1.35358 0 0 0 .0348-.30605c0-.74558-.6044-1.35-1.35-1.35s-1.35.60442-1.35 1.35m2.6652.30605L16.3899 18.955c0 .2761-.2239.5-.5.5s-.5-.2239-.5-.5v-.0003l-.8317-10.1269a1.3633 1.3633 0 0 1-.0183-.2228"/><path d="M14.5399 8.605h-.5c0 .25408.1906.46775.443.49674l.057-.49674Zm1.85 10.35-.0195.4996c.2678.0105.4962-.192.5179-.4592l-.4984-.0404Zm0 0 .0195-.4996a.50023.50023 0 0 0-.3661.1392.50014.50014 0 0 0-.1534.3604h.5Zm-1-.0003h.5a.50652.50652 0 0 0-.0017-.0409l-.4983.0409Zm-.8317-10.1269.4983-.04093a.51255.51255 0 0 0-.005-.04098l-.4933.08191Zm-.0183-.2228.0571-.49673a.5001.5001 0 0 0-.3899.12356.50028.50028 0 0 0-.1672.37317h.5Zm2.2 0c0 .067-.0076.13158-.0219.19315l.9742.22579a1.85457 1.85457 0 0 0 .0477-.41894h-1Zm-.85-.85c.4695 0 .85.38056.85.85h1c0-1.02172-.8283-1.85-1.85-1.85v1Zm-.85.85c0-.46944.3806-.85.85-.85v-1c-1.0217 0-1.85.82828-1.85 1.85h1Zm-.557.49674 2.6651.30604.1141-.99347-2.6651-.30604-.1141.99347Zm2.2238-.23114-.8151 10.044.9967.0808.8151-10.04391-.9967-.08089Zm-.2973 9.5848-.039.9992.039-.9992Zm-.5195.4996v1c.5523 0 1-.4477 1-1h-1Zm0 0h-1c0 .5523.4477 1 1 1v-1Zm0 0v-.0003h-1v.0003h1Zm-.0017-.0412-.8317-10.12693-.9966.08185.8317 10.12688.9966-.0818Zm-.8367-10.16791a.85467.85467 0 0 1-.0116-.14089h-1c0 .10344.0086.20527.0251.3047l.9865-.16381Zm-.5686.35585 2.6651.30604.1141-.99347-2.6651-.30604-.1141.99347Z"/></g><defs><clipPath id="a"><path fill="#fff" transform="translate(14.0399 6.755)" d="M0 0h3.7v17.49H0z"/></clipPath></defs></svg>
