<svg width="137" height="56" fill="none" xmlns="http://www.w3.org/2000/svg"><g clip-path="url(#a)" fill="#FF8600"><path d="M97.0645 15.791a.61867.61867 0 0 1-.2649.0525c-.6647-.0619-1.3255-.1043-1.9765-.1486a.50055.50055 0 0 1-.1894-.0486.50064.50064 0 0 1-.1562-.1176.49995.49995 0 0 1-.0991-.1685.49753.49753 0 0 1-.027-.1936.50975.50975 0 0 1 .1689-.3426.5101.5101 0 0 1 .3594-.1292l2.0061.1428c.131.0141.2515.0785.3361.1796.0847.101.1269.2309.1179.3625a.5098.5098 0 0 1-.2753.4113ZM114.189 19.3805c-.11.0717-.244.0981-.373.0738-1.366-.4632-2.767-.8991-4.169-1.284-.064-.0167-.123-.0459-.176-.0857a.50336.50336 0 0 1-.129-.1466c-.033-.0569-.055-.1198-.063-.185a.4942.4942 0 0 1 .012-.1952c.038-.1257.124-.2318.238-.2963.114-.0645.249-.0823.377-.0497 1.423.3908 2.844.8227 4.232 1.2919.062.0204.12.0531.169.0961.05.0431.09.0957.119.1546.028.059.045.1231.049.1886.003.0655-.006.131-.029.1927-.055.1083-.146.1945-.257.2448Zm-8.472-2.3172c-.094.0585-.205.0806-.314.0622-1.423-.2888-2.862-.5541-4.29-.7606-.069-.0038-.137-.022-.198-.0534a.49983.49983 0 0 1-.161-.1288c-.044-.0536-.076-.1157-.095-.1825-.018-.0668-.023-.1367-.013-.2053a.5129.5129 0 0 1 .07-.1933c.037-.0588.085-.1094.143-.1486a.4934.4934 0 0 1 .19-.0787.49684.49684 0 0 1 .205.0044c1.449.2124 2.912.4424 4.353.7685.064.0138.125.0403.179.0778.055.0375.101.0854.137.1409.035.0555.059.1174.071.1823.012.0649.01.1315-.004.1959-.018.0707-.051.1364-.099.1918-.047.0554-.107.099-.174.1274ZM120.147 21.7167c-.065.0348-.138.0541-.212.0563a.48014.48014 0 0 1-.214-.0433c-.605-.2776-1.217-.5336-1.828-.7896a.50055.50055 0 0 1-.27-.2689c-.051-.1217-.051-.2585-.002-.3807.053-.1228.151-.2202.274-.2713.124-.0511.262-.0519.386-.0021.611.256 1.234.5199 1.85.7955.086.0389.16.1016.212.1808.052.0791.081.1714.082.2662.002.0947-.023.188-.073.269a.4961.4961 0 0 1-.205.1881ZM65.6283 21.7766a.50018.50018 0 0 1-.3525.0308.50028.50028 0 0 1-.2846-.2103.49958.49958 0 0 1-.0693-.3768.49756.49756 0 0 1 .0774-.1793.50022.50022 0 0 1 .1402-.136c.4143-.2758.8521-.5358 1.2997-.7979a.50129.50129 0 0 1 .3805-.0489.50127.50127 0 0 1 .1181.9186c-.4332.249-.8514.5052-1.2546.7686l-.0549.0312ZM90.4891 15.5344a.40922.40922 0 0 1-.2158.0428c-1.0178.008-2.0299.0455-3.0399.0928a.50539.50539 0 0 1-.3649-.1275.50489.50489 0 0 1-.1677-.3481.50464.50464 0 0 1 .1274-.3648.505.505 0 0 1 .3481-.1678 78.15503 78.15503 0 0 1 3.0419-.0829.49946.49946 0 0 1 .3752.0749.49963.49963 0 0 1 .2125.3183.5002.5002 0 0 1-.3933.5877l.0765-.0254Zm-6.0527.3229a.55024.55024 0 0 1-.1766.035 50.3489 50.3489 0 0 0-2.9836.3772.49995.49995 0 0 1-.5876-.3933.50033.50033 0 0 1 .0749-.3753.4996.4996 0 0 1 .3183-.2123c.9809-.1944 1.9833-.2809 3.0523-.3909a.51017.51017 0 0 1 .3615.112.51005.51005 0 0 1 .1849.3302.48935.48935 0 0 1-.0526.3107.4898.4898 0 0 1-.2307.2144l.0392-.0077Zm-6.0322.9406-.1177.0233c-.9809.1944-1.9502.4477-2.9175.7108a.50108.50108 0 0 1-.3806-.0487.50103.50103 0 0 1-.2346-.3034.5015.5015 0 0 1 .0486-.3806.50095.50095 0 0 1 .3035-.2346c.9673-.2631 1.9385-.5066 2.996-.7263a.48917.48917 0 0 1 .1936-.0033.4884.4884 0 0 1 .1798.0719c.0546.0357.1014.082.1379.136a.49227.49227 0 0 1 .0744.1788.49007.49007 0 0 1-.0466.3553.49042.49042 0 0 1-.276.2286l.0392-.0078Zm-5.8727 1.643-.0588.0117c-.9498.3513-1.8958.7223-2.8339 1.1325a.48915.48915 0 0 1-.1895.0474.48808.48808 0 0 1-.193-.0304.48997.48997 0 0 1-.1658-.1033.492.492 0 0 1-.1122-.16.47115.47115 0 0 1-.0545-.1901.47277.47277 0 0 1 .0286-.1957.46979.46979 0 0 1 .1066-.1666.47015.47015 0 0 1 .1656-.1081c.9362-.42 1.8802-.8008 2.832-1.1423a.49963.49963 0 0 1 .1931-.0293c.0657.003.1302.019.1897.0469.0596.028.113.0675.1573.1161a.50272.50272 0 0 1 .1007.1675.51049.51049 0 0 1 .0064.3423.5103.5103 0 0 1-.2115.2692l.0392-.0078Z"/><path d="M95.0487 15.6503a.53029.53029 0 0 1-.2453.0486l-1.4923-.0712a.51338.51338 0 0 1-.358-.1613.51349.51349 0 0 1-.1392-.3672.51309.51309 0 0 1 .1612-.358.5133.5133 0 0 1 .3673-.1392l1.5119.0674a.4998.4998 0 0 1 .3753.0749.4996.4996 0 0 1 .2123.3183.4997.4997 0 0 1-.0749.3753.49987.49987 0 0 1-.3183.2124ZM74.3615 29.5777c-.5597.2672-1.139.4911-1.7329.6696-4.1305 1.2774-11.2145 1.4376-12.9416-1.2071-.5281-.8128-.7707-2.2429 1.0962-4.397a19.77487 19.77487 0 0 1 3.245-2.9674c-22.2873-5.2576-42.2292 1.9365-52.2788 6.7827a.50043.50043 0 0 1-.1893.0489.49975.49975 0 0 1-.1936-.0275.49914.49914 0 0 1-.1683-.0995.49912.49912 0 0 1-.1172-.1565.49027.49027 0 0 1-.0482-.1874.48926.48926 0 0 1 .0282-.1915.49012.49012 0 0 1 .1001-.1657.48919.48919 0 0 1 .1564-.1139c10.291-4.9654 30.8648-12.3662 53.8142-6.6486l.049-.0098a.51036.51036 0 0 1 .3759-.0654.51061.51061 0 0 1 .3162.2137.2934.2934 0 0 1 .0174.0883l.0589-.0117c7.0648 1.8519 10.5131 3.7681 10.5604 5.8588.0473 1.0101-.6955 1.8913-2.148 2.587Zm-9.0473-7.5859a19.21482 19.21482 0 0 0-3.7791 3.3078c-1.1693 1.3531-1.5065 2.4292-1.0077 3.1969 1.3026 1.9948 7.5546 2.1116 11.8008.8011 2.027-.626 3.2131-1.4829 3.1968-2.2851-.0162-.8021-.9879-2.5669-9.8287-4.8926l-.3821-.1281ZM2.89773 33.4851a.51012.51012 0 0 1-.34047.0299.50992.50992 0 0 1-.28291-.1918.49032.49032 0 0 1-.08949-.3729.491.491 0 0 1 .07028-.1826.48972.48972 0 0 1 .13613-.1405s.43789-.3111 1.27035-.8431a.4997.4997 0 0 1 .18339-.0711.50078.50078 0 0 1 .19664.0051.49943.49943 0 0 1 .17946.0806.50133.50133 0 0 1 .13451.1435.49042.49042 0 0 1 .06448.3759.4897.4897 0 0 1-.08105.1769.48972.48972 0 0 1-.14349.1314c-.79517.5144-1.2252.8137-1.2252.8137l-.07263.045ZM6.20002 31.4238a.5205.5205 0 0 1-.39698.0339.52058.52058 0 0 1-.30472-.2567.5206.5206 0 0 1 .22284-.7017l2.10049-1.1809a.50038.50038 0 0 1 .36736-.0258.5004.5004 0 0 1 .28535.2328.49023.49023 0 0 1 .04602.3844.48998.48998 0 0 1-.09297.1743.49088.49088 0 0 1-.15426.1235c-.76362.4164-1.46053.8094-2.07304 1.1652l-.00009.051Z"/><path d="m11.763 28.4761-1.3367.6625a.51786.51786 0 0 1-.69383-.2346.51788.51788 0 0 1 .23458-.6938l1.35435-.6762a.50988.50988 0 0 1 .3816-.0177.51007.51007 0 0 1 .2868.2522.50086.50086 0 0 1 .065.1974.4999.4999 0 0 1-.1241.3873.50025.50025 0 0 1-.1677.1229ZM133.938 14.712c-.012-.0589-.023-.1177-.035-.1766-.012-.0588-.021-.1079-.033-.1667l-.033-.1668c-.346-.6133-.837-1.1321-1.431-1.5106-.811-.3383-1.687-.4887-2.564-.4399-1.118.0044-2.198.4069-3.045 1.1354-.848.7286-1.408 1.7353-1.581 2.8397a4.3266 4.3266 0 0 0-.131 2.0649c.164.467.689.7503.974.592a.88372.88372 0 0 0 .242-.3205c.055-.1241.081-.2592.075-.3948a4.38753 4.38753 0 0 1 .454-2.8527 3.50823 3.50823 0 0 1 1.895-1.6201c.809-.2899 1.696-.2731 2.493.0471 2.058.6115 2.079 1.902 1.512 3.0542-.656.9349-1.461 1.7557-2.383 2.4296a2.7177 2.7177 0 0 0-.829.9595c-.143.2414-.191.5269-.137.8019.092.4611 1.5 3.5053 1.5 3.5053.115.2728.239.5338.368.7733 0 0 .81 1.8783 1.611 1.8012l.049-.0097c.112-.011.218-.0607.298-.1407l.059-.0117c.045-.0698.075-.1487.086-.2312-.006-.3385-.093-.6706-.253-.9693-.686-1.1485-2.36-4.0382-2.376-4.8404-.011-.6197 1.25-1.5628 2.299-2.4945.486-.4586.83-1.0468.993-1.695.162-.6482.136-1.3293-.077-1.9629ZM134.764 28.0866a.93905.93905 0 0 0-.296-.0025c-.205.0092-.406.0608-.589.1517-.184.0908-.347.2188-.479.3759-.096.1118-.154.2515-.166.3986-.011.1472.025.2941.104.4191.107.1402.242.257.396.343a1.28888 1.28888 0 0 0 1.02.1033c.168-.0534.323-.1408.456-.2567.741-.5341-.011-1.4454-.446-1.5324Z"/></g><defs><clipPath id="a"><path fill="#fff" transform="rotate(-11.21 136.44594 8.71394)" d="M0 0h132.82v29.13H0z"/></clipPath></defs></svg>
