<svg width="188" height="244" fill="none" xmlns="http://www.w3.org/2000/svg"><g clip-path="url(#a)"><path d="m168.633 123.127-77.0114 37.056-65.0971-32.435-1.9932.725.453 2.219-1.3138.363-19.79635 27.18.81541 5.346 30.17024 16.897 4.1224 20.974s1.4043 6.705 11.5517 10.782a157.338 157.338 0 0 1 27.4522 17.667s14.7227 11.325 20.1135 10.691c5.3904-.634 67.9514-36.92 67.9514-36.92.593-1.638.988-3.342 1.178-5.074 0-2.401 5.436-63.421 2.174-73.795-.095-.619-.362-1.2-.77-1.676Z" fill="#FF8600"/><path d="m170.943 126.706 14.044 20.476-1.495 3.216-13.228-6.614.679-17.078Z" fill="#FF8600"/><path d="M108.7 100.341s1.314 48.608 1.993 51.371c.68 2.763-4.077 2.039-4.53.498-.453-1.54.589-48.834-.815-52.2766-1.404-3.4429 3.352.4076 3.352.4076Z" fill="#242424"/><path d="M171.668 124.214c-.162-.759-.473-1.479-.917-2.117a5.82453 5.82453 0 0 0-1.665-1.597c-2.148-1.072-4.374-1.981-6.659-2.718l-8.018-3.217-4.53-2.038-3.081-1.087-1.404-.453c-9.06-3.217-17.668-6.252-26.456-9.423-4.094-1.769-8.461-2.8261-12.911-3.1256-1.223 0-2.446 0-3.624.2718-7.3626 1.8408-14.572 4.2488-21.5628 7.2028-18.1203 6.659-36.2406 14.224-54.9046 19.57-1.4552.567-2.6383 1.669-3.3069 3.08 0 0-5.4814 8.789-6.4327 10.057C9.85391 147.68.70316 160.636.52195 161.27c-.09643.437-.07142.892.07234 1.315.14376.423.40076.799.74308 1.086 1.17782.861 19.34343 10.555 22.19733 12.277l10.0568 6.115c1.0872 5.255 2.2197 10.465 3.307 15.72 1.2684 6.342 3.1257 11.642 9.4678 13.952l2.2197.997c1.5402.951 4.8472 2.854 8.0183 4.938l.906.543 21.3819 14.451c5.1643 3.489 10.1927 7.113 15.5835 10.148 1.0019.46 2.0913.698 3.1937.698 1.1024 0 2.1918-.238 3.1936-.698 12.775-6.705 25.369-13.59 38.007-20.748 7.203-3.986 14.361-8.063 21.518-12.095 2.379-1.195 4.652-2.589 6.795-4.168 1.319-1.172 2.172-2.78 2.401-4.53 1.359-19.343 2.764-38.687 3.67-58.03-.027-6.374-.557-12.736-1.586-19.027Zm-128.5181-.271c19.4341-7.294 38.8681-14.678 58.3471-21.835 1.737-.568 3.609-.568 5.346 0 18.754 6.614 37.464 13.59 56.173 20.113.804.339 1.577.749 2.31 1.223-1.052.678-2.141 1.299-3.262 1.858-22.65 9.06-43.987 20.793-65.5045 32.073-1.006.602-2.1568.921-3.3296.921s-2.3236-.319-3.3296-.921c-18.1203-9.061-36.6936-17.758-55.0857-26.637-1.1778-.589-2.3103-1.314-4.1224-2.401 4.666-1.631 8.6072-2.945 12.4577-4.394Zm-6.6592 56.127-4.0317-2.265c-3.0352-1.676-5.3908-3.035-6.0703-3.533-2.3557-1.722-15.0852-8.698-18.12032-10.283-.89182-.302-1.68827-.833-2.30873-1.541-.62045-.708-1.04292-1.568-1.22472-2.491 1.94708-3.63 4.11028-7.14 6.47797-10.51.9966-1.993 7.7011-10.374 11.7329-15.312l2.9898-3.714c5.0737 2.219 9.0602 3.85 13.092 5.798 15.9912 7.928 31.9823 15.901 47.8829 24.055.3938.227.7588.501 1.0872.815 1.1778 2.129-7.837 17.215-9.649 19.027-1.8121 1.812-5.9798 9.06-7.9277 11.914a6.52143 6.52143 0 0 1-2.6341 2.73c-1.1291.629-2.4197.909-3.708.803-2.0838-.408-7.1575-5.209-10.7816-6.75-2.265-.906-10.1021-5.073-16.8066-8.743Zm45.3008 49.831c-12.1406-7.61-24.1-15.447-36.2406-23.013a9.0565 9.0565 0 0 1-2.9298-2.539c-.782-1.048-1.3279-2.252-1.6003-3.531-1.1325-5.436-2.3103-10.872-3.4881-16.308 13.5902 8.109 25.5496 15.357 26.6821 15.855.6709.568 1.5217.88 2.4009.88.8793 0 1.7301-.312 2.401-.88 1.6308-1.54 10.2379-16.354 16.9878-26.637l3.8052-5.164c1.9027 21.925 3.6694 43.851 5.4814 65.777v3.306c-4.7566-2.808-9.3319-5.119-13.5902-7.837l.0906.091Zm86.4335-87.385c-.906 18.573-2.083 37.147-3.08 55.72.056 1.192-.235 2.374-.839 3.403-.603 1.029-1.492 1.862-2.559 2.395l-60.068 32.662a27.893 27.893 0 0 1-2.6732 1.133c-.2925-.855-.5048-1.734-.6342-2.628-2.0537-23.103-4.062-46.207-6.025-69.31-.0188-.59.0894-1.177.3171-1.721l1.0872-1.45c8.5161-4.213 17.1691-8.063 25.7311-12.231 15.311-7.52 30.623-15.176 45.935-22.65.857-.38 1.734-.712 2.627-.997.181 5.391.634 10.555.181 15.674Z" fill="#242424"/><path d="M184.488 152.754c5.165 1.721 2.718-3.805 2.718-3.805l-.634-1.314c-1.585-3.941-15.719-25.323-15.719-25.323v7.656s7.882 11.098 9.558 13.59c1.676 2.491 2.492 4.53 1.903 4.802-.589.272-10.646-5.889-12.005-6.388-1.359-.498-.951 4.123-.951 4.123s9.06 4.122 15.04 6.568l.09.091ZM113.189 21.0228l.174-.7966c.076-.2457.131-.4975.164-.7525l.164-.7524c-.328-3.1728-1.433-6.2159-3.215-8.86092-2.757-2.86988-6.127-5.0786-9.859-6.46056-4.6494-2.01088-9.8646-2.2941-14.7048-.79862-4.8402 1.49548-8.9868 4.67122-11.6918 8.9545a19.4331 19.4331 0 0 0-4.2753 8.341c-.1629 2.2364 1.5066 4.3621 2.9751 4.2186a3.98672 3.98672 0 0 0 1.5859-.8935 3.98517 3.98517 0 0 0 1.0233-1.5052c1.0354-4.3656 3.5166-8.2529 7.0406-11.0301 3.074-2.38654 6.9165-3.56282 10.7997-3.30605 3.8832.25677 7.5373 1.92876 10.2703 4.69925 7.445 6.2591 5.202 11.6584.766 15.4206a46.52836 46.52836 0 0 1-14.2902 5.7874 11.77871 11.77871 0 0 0-5.1786 2.4877 5.11938 5.11938 0 0 0-2.061 3.0745c-.4534 2.0803-.092 17.2275-.092 17.2275-.0142 1.3414.0255 2.6483.1288 3.8763 0 0-.0262 9.2671 3.4375 10.3929a2.53691 2.53691 0 0 0 1.4936-.0453l.2656.0579a3.489 3.489 0 0 0 .8222-.7945 9.55802 9.55802 0 0 0 .6549-4.4937c-.7762-6.0111-2.508-21.0396-1.1262-24.4012 1.0753-2.5939 8.0164-4.2338 14.0574-6.2091 2.88-.9797 5.418-2.7677 7.311-5.1504 1.892-2.3828 3.058-5.2597 3.36-8.2875ZM92.4745 77.9867a6.2082 6.2082 0 0 0-1.216-.5896 6.8408 6.8408 0 0 0-5.3988.307 3.12613 3.12613 0 0 0-1.4089 1.3564 3.12579 3.12579 0 0 0-.327 1.928 5.84163 5.84163 0 0 0 1.0243 2.1399 5.84324 5.84324 0 0 0 4.0522 2.2727 5.84238 5.84238 0 0 0 2.36-.2417c4.0403-.8812 2.7613-6.0746.9142-7.1727Z" fill="#242424"/></g><defs><clipPath id="a"><path fill="#fff" transform="translate(.20483 .77002)" d="M0 0h187.59v242.54H0z"/></clipPath></defs></svg>
