<svg width="139" height="55" fill="none" xmlns="http://www.w3.org/2000/svg"><g clip-path="url(#a)" fill="#FF8600"><path d="M96.133 15.354a.622.622 0 0 1-.264.053 68.037 68.037 0 0 0-1.977-.149.49.49 0 0 1-.472-.528.5.5 0 0 1 .53-.462c.67.03 1.332.082 2.007.143a.5.5 0 1 1 .194.98l-.017-.037ZM113.278 18.94a.511.511 0 0 1-.383.024 67.142 67.142 0 0 0-4.167-1.274.506.506 0 0 1-.305-.233.506.506 0 0 1 .035-.555.501.501 0 0 1 .527-.18c1.433.388 2.854.82 4.232 1.291a.501.501 0 0 1 .308.632.539.539 0 0 1-.247.294Zm-8.461-2.31a.537.537 0 0 1-.323.064 74.216 74.216 0 0 0-4.29-.76.5.5 0 0 1 .141-.986c1.449.212 2.911.442 4.352.768a.507.507 0 0 1 .393.595.507.507 0 0 1-.273.32ZM119.236 21.275a.494.494 0 0 1-.426.013 60.599 60.599 0 0 0-1.828-.79.5.5 0 0 1-.272-.649.51.51 0 0 1 .66-.273c.621.254 1.234.52 1.85.795a.512.512 0 0 1 .253.664.49.49 0 0 1-.237.24ZM64.752 21.31a.523.523 0 0 1-.498-.922c.416-.266.852-.536 1.3-.798a.52.52 0 0 1 .678.182.5.5 0 0 1-.18.688c-.426.248-.845.504-1.254.769l-.046.08ZM89.588 15.092a.45.45 0 0 1-.226.044c-1.018.009-2.03.046-3.04.093a.49.49 0 0 1-.52-.467.51.51 0 0 1 .475-.533 78.358 78.358 0 0 1 3.041-.083.5.5 0 0 1 .195.981l.075-.035Zm-6.053.323a.471.471 0 0 1-.167.033c-1 .096-1.995.222-2.983.377a.5.5 0 0 1-.195-.98c.981-.195 1.985-.272 3.052-.392a.5.5 0 0 1 .549.452.49.49 0 0 1-.305.52l.049-.01Zm-6.032.94-.118.024c-.981.194-1.95.448-2.918.71a.491.491 0 0 1-.609-.348.5.5 0 0 1 .348-.609 43.091 43.091 0 0 1 2.994-.736.49.49 0 0 1 .586.383.49.49 0 0 1-.332.586l.049-.01ZM71.63 18l-.049.01c-.952.341-1.896.722-2.834 1.132a.5.5 0 0 1-.662-.256.468.468 0 0 1 .246-.66c.938-.41 1.88-.801 2.832-1.143a.51.51 0 0 1 .39.942L71.63 18Z"/><path d="M94.137 15.21a.43.43 0 0 1-.245.048l-1.49-.061a.513.513 0 0 1 .03-1.026l1.515.077a.503.503 0 0 1 .471.529.49.49 0 0 1-.28.432ZM73.454 29.157c-.559.268-1.138.492-1.732.67-4.131 1.277-11.215 1.438-12.94-1.197-.53-.823-.773-2.253 1.094-4.407a19.561 19.561 0 0 1 3.255-2.97c-22.297-5.255-42.24 1.94-52.289 6.786a.514.514 0 1 1-.44-.932c10.3-4.977 30.873-12.379 53.813-6.66a.5.5 0 0 1 .692.149l.017.088c7.065 1.851 10.513 3.768 10.56 5.858.21 1.009-.575 1.93-2.03 2.615Zm-9.047-7.586a19.367 19.367 0 0 0-3.77 3.306c-1.178 1.355-1.555 2.44-1.017 3.199 1.303 1.995 7.555 2.111 11.801.8 2.027-.625 3.223-1.484 3.197-2.284-.026-.8-.996-2.606-9.803-4.918l-.408-.103ZM1.987 33.046a.49.49 0 0 1-.624-.161.5.5 0 0 1 .117-.697s.438-.31 1.27-.843a.503.503 0 0 1 .537.852c-.798.505-1.228.804-1.228.804l-.072.045ZM5.289 30.985a.49.49 0 0 1-.65-.197.51.51 0 0 1 .204-.663c.623-.358 1.32-.75 2.103-1.17a.52.52 0 1 1 .469.926 78.44 78.44 0 0 0-2.083 1.167l-.043-.063Z"/><path d="m10.852 28.037-1.337.663a.517.517 0 0 1-.45-.93l1.347-.665a.517.517 0 0 1 .45.93l-.01.002ZM137.889 27.59l-13.155-11.543a.55.55 0 0 0-.921.498l.93 6.493 6.106 2.205a.489.489 0 0 1 .039.92.508.508 0 0 1-.382.025L124.465 24l-4.813 4.624a.554.554 0 0 0-.114.608.55.55 0 0 0 .525.33l17.456-1.014a.546.546 0 0 0 .517-.352.554.554 0 0 0-.147-.608Z"/></g><defs><clipPath id="a"><path fill="#fff" transform="rotate(-11.211 133.79 13.132)" d="M0 0h135.08v29H0z"/></clipPath></defs></svg>
