<svg width="21" height="21" fill="none" xmlns="http://www.w3.org/2000/svg"><circle cx="10.5" cy="10.802" r="10" fill="#606060"/><g clip-path="url(#a)" fill="#fff"><path d="M10.346 16.241a.52.52 0 1 0 0-1.04.52.52 0 0 0 0 1.04Z" stroke="#fff" stroke-linecap="round" stroke-linejoin="round"/><path fill-rule="evenodd" clip-rule="evenodd" d="M11.123 6.82a.798.798 0 1 0-1.574-.181m1.574.18-.481 5.933a.295.295 0 1 1-.59 0L9.56 6.77a.803.803 0 0 1-.011-.131"/><path d="M9.549 6.639h-.5a.5.5 0 0 0 .443.497l.057-.497Zm1.093 6.113-.036.499a.5.5 0 0 0 .534-.458l-.498-.04Zm0 0 .035-.498a.5.5 0 0 0-.535.498h.5Zm-.59 0h.5c0-.014-.002-.027-.003-.04l-.498.04ZM9.56 6.77l.498-.04a.47.47 0 0 0-.005-.042l-.493.082Zm-.011-.131.057-.497a.5.5 0 0 0-.557.497h.5Zm1.095 0a.297.297 0 0 1-.008.068l.974.225c.022-.094.034-.193.034-.293h-1Zm-.298-.298c.165 0 .298.134.298.298h1c0-.717-.581-1.298-1.298-1.298v1Zm-.297.298c0-.164.133-.298.297-.298v-1c-.716 0-1.297.581-1.297 1.298h1Zm-.557.497 1.574.18.114-.993-1.574-.181-.114.994Zm1.133-.357-.482 5.933.997.08.482-5.932-.997-.08Zm.052 5.475-.07.997.07-.997Zm-.535.498c0-.113.091-.204.204-.204v1c.44 0 .796-.357.796-.796h-1Zm.204-.204c.113 0 .205.091.205.204h-1c0 .44.356.796.795.796v-1Zm.205.204h-1 1Zm-.002-.04-.49-5.983-.998.082.492 5.982.996-.082Zm-.496-6.024a.307.307 0 0 1-.004-.05h-1c0 .073.006.145.018.214l.986-.164Zm-.561.448 1.574.18.114-.993-1.574-.181-.114.994Z"/></g><defs><clipPath id="a"><path fill="#fff" transform="translate(8.5 5.202)" d="M0 0h4v12H0z"/></clipPath></defs></svg>
